<svg width="20" height="20" viewBox="0 0 20 20" fill="none" xmlns="http://www.w3.org/2000/svg">
<path d="M7.07394 5.96061C7.02662 5.91368 7 5.84979 7 5.78314C7 5.71649 7.02662 5.6526 7.07394 5.60567L7.60386 5.07575C7.64922 5.02742 7.71255 5 7.77883 5C7.84511 5 7.90844 5.02742 7.9538 5.07575L12.5481 9.67005C12.6184 9.7403 12.658 9.8356 12.6581 9.93501L12.6581 10.065C12.658 10.1644 12.6184 10.2597 12.5481 10.33L7.9538 14.9243C7.90844 14.9726 7.84511 15 7.77883 15C7.71255 15 7.64922 14.9726 7.60386 14.9243L7.07394 14.3943C7.02662 14.3474 7 14.2835 7 14.2169C7 14.1502 7.02662 14.0863 7.07394 14.0394L11.1133 10L7.07394 5.96061Z" fill="#676767"/>
</svg>
