<svg width="32" height="24" viewBox="0 0 32 24" fill="none" xmlns="http://www.w3.org/2000/svg">
<path fill-rule="evenodd" clip-rule="evenodd" d="M9.12687 10.5C8.22782 10.5 7.40303 11.0049 6.99263 11.8035L6.99781 11.7947L6.98281 11.8228C6.98606 11.8164 6.98933 11.8099 6.99263 11.8035L5.35438 14.5875C5.12265 14.9651 5 15.3992 5 15.8419V20.2481C5 20.9561 5.58385 21.54 6.29188 21.54H6.96406C7.19462 22.8975 8.37912 23.94 9.8 23.94C11.2209 23.94 12.4054 22.8975 12.6359 21.54H21.3641C21.5946 22.8975 22.7791 23.94 24.2 23.94C25.6209 23.94 26.8054 22.8975 27.0359 21.54H27.56C28.3498 21.54 29 20.8898 29 20.1V17.8866C29 16.7167 28.1483 15.712 26.9947 15.5194L22.9972 14.8528L19.6559 11.3531C19.2001 10.8121 18.5283 10.5 17.8212 10.5H9.12687ZM13.16 11.46H9.12687C8.58164 11.46 8.08551 11.7659 7.84063 12.2531L7.83312 12.2681L6.33125 14.82H13.16V11.46ZM17.8212 11.46H14.12V14.82H21.6378L18.9312 11.9831L18.9219 11.9719C18.6481 11.6469 18.246 11.46 17.8212 11.46ZM22.7197 15.78H5.96375C5.96339 15.7885 5.96269 15.7969 5.962 15.8053C5.961 15.8174 5.96 15.8296 5.96 15.8419V20.2481C5.96 20.4367 6.10326 20.58 6.29188 20.58H6.96406C7.19462 19.2225 8.37912 18.18 9.8 18.18C11.2209 18.18 12.4054 19.2225 12.6359 20.58H21.3641C21.5946 19.2225 22.7791 18.18 24.2 18.18C25.6209 18.18 26.8054 19.2225 27.0359 20.58H27.56C27.8262 20.58 28.04 20.3662 28.04 20.1V17.8866C28.04 17.1796 27.5344 16.5827 26.8372 16.4663L22.7197 15.78ZM11.72 21.06C11.72 19.9942 10.8658 19.14 9.8 19.14C8.73422 19.14 7.88 19.9942 7.88 21.06C7.88 22.1258 8.73422 22.98 9.8 22.98C10.8658 22.98 11.72 22.1258 11.72 21.06ZM26.12 21.06C26.12 19.9942 25.2658 19.14 24.2 19.14C23.1342 19.14 22.28 19.9942 22.28 21.06C22.28 22.1258 23.1342 22.98 24.2 22.98C25.2658 22.98 26.12 22.1258 26.12 21.06Z" fill="#A5A6A6"/>
</svg>
