<svg width="32" height="24" viewBox="0 0 32 24" fill="none" xmlns="http://www.w3.org/2000/svg">
<path fill-rule="evenodd" clip-rule="evenodd" d="M9.12687 6C8.22782 6 7.40303 6.50494 6.99263 7.30349L6.99781 7.29469L6.98281 7.32281C6.98606 7.31635 6.98933 7.30991 6.99263 7.30349L5.35438 10.0875C5.12265 10.4651 5 10.8992 5 11.3419V15.7481C5 16.4561 5.58385 17.04 6.29188 17.04H6.96406C7.19462 18.3975 8.37912 19.44 9.8 19.44C11.2209 19.44 12.4054 18.3975 12.6359 17.04H21.3641C21.5946 18.3975 22.7791 19.44 24.2 19.44C25.6209 19.44 26.8054 18.3975 27.0359 17.04H27.56C28.3498 17.04 29 16.3898 29 15.6V13.3866C29 12.2167 28.1483 11.212 26.9947 11.0194L22.9972 10.3528L19.6559 6.85312C19.2001 6.31214 18.5283 6 17.8212 6H9.12687ZM13.16 6.96H9.12687C8.58164 6.96 8.08551 7.26587 7.84063 7.75313L7.83312 7.76812L6.33125 10.32H13.16V6.96ZM17.8212 6.96H14.12V10.32H21.6378L18.9312 7.48312L18.9219 7.47188C18.6481 7.14694 18.246 6.96 17.8212 6.96ZM22.7197 11.28H5.96375C5.96339 11.2885 5.96269 11.2969 5.962 11.3053C5.961 11.3174 5.96 11.3296 5.96 11.3419V15.7481C5.96 15.9367 6.10326 16.08 6.29188 16.08H6.96406C7.19462 14.7225 8.37912 13.68 9.8 13.68C11.2209 13.68 12.4054 14.7225 12.6359 16.08H21.3641C21.5946 14.7225 22.7791 13.68 24.2 13.68C25.6209 13.68 26.8054 14.7225 27.0359 16.08H27.56C27.8262 16.08 28.04 15.8662 28.04 15.6V13.3866C28.04 12.6796 27.5344 12.0827 26.8372 11.9663L22.7197 11.28ZM11.72 16.56C11.72 15.4942 10.8658 14.64 9.8 14.64C8.73422 14.64 7.88 15.4942 7.88 16.56C7.88 17.6258 8.73422 18.48 9.8 18.48C10.8658 18.48 11.72 17.6258 11.72 16.56ZM26.12 16.56C26.12 15.4942 25.2658 14.64 24.2 14.64C23.1342 14.64 22.28 15.4942 22.28 16.56C22.28 17.6258 23.1342 18.48 24.2 18.48C25.2658 18.48 26.12 17.6258 26.12 16.56Z" fill="#676767"/>
</svg>
