<svg width="32" height="32" viewBox="0 0 32 32" fill="none" xmlns="http://www.w3.org/2000/svg">
<g clip-path="url(#clip0_3934_22518)">
<circle cx="16" cy="16" r="16" fill="white"/>
<path d="M16 0C7.16353 0 0 7.16353 0 16C0 24.8365 7.16353 32 16 32C24.8365 32 32 24.8365 32 16C32 7.16353 24.8365 0 16 0ZM25.5714 9.37086C25.5785 9.37086 25.5847 9.37476 25.5918 9.37508L16.6635 18.3034C16.366 18.6009 15.8391 18.6016 15.5415 18.3027L6.60967 9.37086H25.5714ZM5.98702 9.9682C5.98702 9.96334 5.98962 9.95944 5.98962 9.9549L12.0587 16.024L5.98702 22.0957V9.9682ZM6.58436 22.7959C6.55678 22.7959 6.53309 22.7839 6.50649 22.7803L12.6606 16.6262L14.9393 18.9049C15.2492 19.2148 15.6622 19.3851 16.1025 19.3851C16.5432 19.3851 16.9555 19.2141 17.2654 18.9049L19.4705 16.6999L25.5665 22.7959H6.58436ZM26.1687 22.194L20.0727 16.098L26.1687 10.0023V22.194Z" fill="#334CDB"/>
</g>
<defs>
<clipPath id="clip0_3934_22518">
<rect width="32" height="32" fill="white"/>
</clipPath>
</defs>
</svg>
