<svg width="23" height="24" viewBox="0 0 23 24" fill="none" xmlns="http://www.w3.org/2000/svg">
<path d="M20.8271 20.3815L20.8271 5.52902C20.8271 5.33056 20.6665 5.16992 20.468 5.16992L15.68 5.16992C15.4816 5.16992 15.3209 5.33056 15.3209 5.52902C15.3209 5.72749 15.4816 5.88813 15.68 5.88813L20.1089 5.88813L20.1089 20.0224H15.68C15.4816 20.0224 15.3209 20.183 15.3209 20.3815C15.3209 20.58 15.4816 20.7406 15.68 20.7406H20.468C20.6663 20.7406 20.8271 20.58 20.8271 20.3815Z" fill="black" stroke="black" stroke-width="0.5"/>
<path d="M1.78521 12.5045C1.64061 12.64 1.64061 12.8921 1.78521 13.0279L4.89743 15.9534C5.04202 16.0891 5.26922 16.0822 5.40496 15.9378C5.54094 15.7932 5.53376 15.566 5.3894 15.4303L2.93745 13.1255L16.6346 13.1255C16.833 13.1255 16.9937 12.9649 16.9937 12.7664C16.9937 12.568 16.833 12.4073 16.6346 12.4073L2.93745 12.4073L5.3894 10.1026C5.46457 10.032 5.50263 9.93672 5.50263 9.84096C5.50263 9.75286 5.47031 9.66452 5.4052 9.59509C5.26946 9.45049 5.04202 9.44355 4.89767 9.57953L1.78521 12.5045Z" fill="black" stroke="black" stroke-width="0.5"/>
</svg>
