<svg width="32" height="24" viewBox="0 0 32 24" fill="none" xmlns="http://www.w3.org/2000/svg">
<path d="M23.0692 13.3742V12.8783C23.0692 11.9214 22.404 11.2735 21.8172 10.7018C21.7439 10.6304 21.6709 10.5593 21.5996 10.488C20.5484 9.15933 20.498 7.32789 20.4422 6.93504C20.3865 6.5422 20.3214 5.83369 19.2805 5.71143V5.65852C19.2805 5.33197 19.1001 4.95853 18.7854 4.63402C18.531 4.37164 18.2697 4.11791 18.2586 4.10727C18.108 3.96111 17.8675 3.96477 17.7213 4.11544C17.5752 4.26605 17.5788 4.50663 17.7295 4.65274C17.7321 4.6553 17.9937 4.90928 18.2398 5.16306C18.4618 5.3921 18.5205 5.58732 18.5205 5.65852V13.3018C18.5205 13.9326 18.0073 14.4457 17.3765 14.4457C17.3486 14.4457 17.3214 14.4487 17.2951 14.4545H14.5655V12.5181C14.5655 12.1226 14.4136 11.762 14.1651 11.4913C14.4098 11.2843 14.5655 10.9754 14.5655 10.6306V10.2335C14.5655 9.61187 14.0597 9.10606 13.438 9.10606H7.12747C6.50576 9.10611 6 9.61192 6 10.2336V10.6307C6 11.2523 6.50576 11.7581 7.12747 11.7581H7.69864C7.51853 11.8687 7.34478 11.9903 7.17901 12.1232C7.02934 12.2431 6.57392 12.608 6.57392 13.385V15.178C6.57392 15.8422 6.99552 16.4087 7.58308 16.6206C7.80452 17.9754 8.98523 19 10.3853 19C11.7522 19 12.9132 18.0192 13.1713 16.7099H19.7312C19.9881 18.0136 21.1392 19 22.5168 19C24.083 19 25.3571 17.7259 25.3571 16.1598C25.3571 14.7828 24.3717 13.632 23.0692 13.3742ZM7.12747 10.9982C6.92484 10.9982 6.75998 10.8333 6.75998 10.6307V10.2336C6.75998 10.0309 6.92484 9.86608 7.12747 9.86608H13.4381C13.6407 9.86608 13.8056 10.0309 13.8056 10.2336V10.6307C13.8056 10.8333 13.6407 10.9982 13.4381 10.9982H7.12747ZM7.3339 13.385C7.3339 13.0228 7.48789 12.8496 7.65428 12.7162C8.70392 11.6516 8.85775 11.7581 10.385 11.7581H13.0456C13.4647 11.7581 13.8056 12.0991 13.8056 12.5181V14.8257C13.8056 15.0276 13.9636 15.1943 14.1652 15.2052L14.3275 15.2139C14.3343 15.2143 14.3411 15.2145 14.3479 15.2145H17.3767C17.4079 15.2145 17.4383 15.2107 17.4673 15.2036C18.4752 15.1561 19.2806 14.3213 19.2806 13.3018V6.47839C19.6819 6.5533 19.5855 6.6206 19.6824 6.93504C19.7792 7.24948 19.8542 9.81709 21.0622 11.0254C21.1359 11.099 21.2113 11.1725 21.287 11.2462C21.8127 11.7583 22.3093 12.2421 22.3093 12.8783V13.3282C20.9096 13.43 19.7887 14.5503 19.6859 15.9499H8.09388C7.68192 15.9499 7.3339 15.5964 7.3339 15.178V13.385ZM10.3853 18.24C9.43443 18.24 8.62201 17.5948 8.37963 16.7099H8.77144H11.9998H12.3917C12.1489 17.5942 11.3348 18.24 10.3853 18.24ZM22.5168 18.24C21.3701 18.24 20.4373 17.3068 20.4373 16.1598C20.4373 15.7204 20.5746 15.3126 20.808 14.9764C21.0629 14.652 21.0895 14.6185 21.3473 14.441C21.6808 14.2133 22.0835 14.0799 22.5168 14.0799C23.6639 14.0799 24.5971 15.013 24.5971 16.1598C24.5971 17.3068 23.6639 18.24 22.5168 18.24Z" fill="#676767" stroke="#676767" stroke-width="0.2" stroke-linecap="round" stroke-linejoin="round"/>
</svg>
