<svg width="128" height="30" viewBox="0 0 128 30" fill="none" xmlns="http://www.w3.org/2000/svg">
<g clip-path="url(#clip0_2532_2053)">
<path fill-rule="evenodd" clip-rule="evenodd" d="M47.7403 11.2007C47.6069 6.34081 51.2204 3.02409 55.4445 3.02409C59.6684 3.02409 63.2812 6.34059 63.1498 11.2012C63.068 14.2249 62.0414 16.1595 60.6906 18.7052L60.6901 18.7061C60.4705 19.1198 60.2424 19.5497 60.0084 20.0031C58.5435 22.8409 55.4351 26.7826 55.4351 26.7826C55.4351 26.7826 52.345 22.8344 50.8849 19.9978C50.662 19.5647 50.4442 19.1518 50.234 18.7531C48.8697 16.1658 47.8221 14.1792 47.7403 11.2007ZM58.4757 25.9857C58.4757 25.9857 56.7357 28.5 56.3403 29C55.945 29.5 54.945 29.5 54.5486 29C54.1522 28.5 52.4119 26.0164 52.4119 26.0164L49.563 21.3642C49.563 21.3642 46.0664 15.5274 45.9494 11.2634C45.786 5.30793 50.1685 1 55.4445 1C60.7207 1 65.1017 5.308 64.9407 11.263C64.8231 15.6072 61.3219 21.3799 61.3219 21.3799L58.4757 25.9857ZM55.445 23C56.2734 23 56.945 22.3284 56.945 21.5C56.945 20.6716 56.2734 20 55.445 20C54.6166 20 53.945 20.6716 53.945 21.5C53.945 22.3284 54.6166 23 55.445 23ZM4.98 17.47C5.35 17.54 5.705 17.62 6.045 17.71C6.395 17.79 6.705 17.91 6.975 18.07C7.245 18.22 7.46 18.425 7.62 18.685C7.78 18.935 7.86 19.265 7.86 19.675C7.86 20.095 7.77 20.46 7.59 20.77C7.41 21.07 7.16 21.32 6.84 21.52C6.53 21.71 6.165 21.855 5.745 21.955C5.325 22.045 4.87 22.09 4.38 22.09C4.18 22.09 3.955 22.08 3.705 22.06C3.465 22.05 3.215 22.03 2.955 22C2.695 21.97 2.44 21.935 2.19 21.895C1.94 21.855 1.71 21.81 1.5 21.76V20.065C1.67 20.115 1.875 20.16 2.115 20.2C2.365 20.23 2.625 20.26 2.895 20.29L3.705 20.35C3.985 20.36 4.24 20.365 4.47 20.365C5.07 20.365 5.495 20.32 5.745 20.23C6.005 20.13 6.135 19.975 6.135 19.765C6.135 19.695 6.11 19.635 6.06 19.585C6.02 19.525 5.93 19.47 5.79 19.42C5.66 19.36 5.47 19.305 5.22 19.255C4.97 19.195 4.64 19.125 4.23 19.045C4.04 19.005 3.795 18.955 3.495 18.895C3.195 18.835 2.9 18.725 2.61 18.565C2.33 18.405 2.085 18.185 1.875 17.905C1.665 17.625 1.56 17.25 1.56 16.78C1.56 16.38 1.64 16.035 1.8 15.745C1.96 15.445 2.18 15.2 2.46 15.01C2.75 14.81 3.09 14.665 3.48 14.575C3.87 14.475 4.295 14.425 4.755 14.425C4.935 14.425 5.14 14.435 5.37 14.455C5.61 14.465 5.85 14.485 6.09 14.515C6.33 14.545 6.57 14.58 6.81 14.62C7.05 14.66 7.27 14.705 7.47 14.755V16.45C7.33 16.41 7.145 16.375 6.915 16.345C6.685 16.305 6.44 16.27 6.18 16.24C5.93 16.21 5.67 16.19 5.4 16.18C5.14 16.16 4.905 16.15 4.695 16.15C4.165 16.15 3.795 16.2 3.585 16.3C3.385 16.4 3.285 16.54 3.285 16.72C3.285 16.82 3.31 16.905 3.36 16.975C3.42 17.035 3.515 17.095 3.645 17.155C3.775 17.205 3.95 17.255 4.17 17.305C4.39 17.355 4.66 17.41 4.98 17.47ZM11.7778 15.355C12.0278 15.065 12.3278 14.84 12.6778 14.68C13.0378 14.51 13.4528 14.425 13.9228 14.425C14.4328 14.425 14.8978 14.525 15.3178 14.725C15.7378 14.925 16.0978 15.2 16.3978 15.55C16.6978 15.89 16.9278 16.295 17.0878 16.765C17.2478 17.225 17.3278 17.72 17.3278 18.25V22H15.5278V18.25C15.5278 17.61 15.3878 17.095 15.1078 16.705C14.8278 16.305 14.3678 16.105 13.7278 16.105C13.0978 16.105 12.6178 16.295 12.2878 16.675C11.9678 17.055 11.7978 17.55 11.7778 18.16V22H9.97781V11.5H11.7778V15.355ZM19.3162 18.235C19.3162 17.715 19.4012 17.225 19.5712 16.765C19.7412 16.295 19.9912 15.89 20.3212 15.55C20.6512 15.2 21.0562 14.925 21.5362 14.725C22.0162 14.525 22.5612 14.425 23.1712 14.425C23.7412 14.425 24.2562 14.515 24.7162 14.695C25.1762 14.875 25.5662 15.13 25.8862 15.46C26.2162 15.79 26.4712 16.195 26.6512 16.675C26.8412 17.145 26.9462 17.67 26.9662 18.25C26.9762 18.44 26.9812 18.675 26.9812 18.955C26.9812 19.225 26.9962 19.525 27.0262 19.855C27.0562 20.185 27.1112 20.535 27.1912 20.905C27.2712 21.265 27.3962 21.63 27.5662 22H25.7662C25.5962 21.63 25.4712 21.245 25.3912 20.845C25.1312 21.225 24.8012 21.525 24.4012 21.745C24.0012 21.965 23.5212 22.075 22.9612 22.075C22.4312 22.075 21.9412 21.975 21.4912 21.775C21.0412 21.575 20.6562 21.305 20.3362 20.965C20.0162 20.615 19.7662 20.21 19.5862 19.75C19.4062 19.28 19.3162 18.775 19.3162 18.235ZM23.1712 16.105C22.8012 16.105 22.4862 16.16 22.2262 16.27C21.9662 16.38 21.7512 16.535 21.5812 16.735C21.4212 16.925 21.3012 17.15 21.2212 17.41C21.1512 17.67 21.1162 17.95 21.1162 18.25C21.1162 18.55 21.1512 18.83 21.2212 19.09C21.3012 19.35 21.4212 19.58 21.5812 19.78C21.7512 19.97 21.9662 20.12 22.2262 20.23C22.4862 20.34 22.8012 20.395 23.1712 20.395C23.7912 20.395 24.2762 20.225 24.6262 19.885C24.9862 19.535 25.1662 18.99 25.1662 18.25C25.1362 17.59 24.9662 17.07 24.6562 16.69C24.3462 16.3 23.8512 16.105 23.1712 16.105ZM31.31 22H29.51V18.265C29.51 17.735 29.595 17.235 29.765 16.765C29.935 16.295 30.185 15.89 30.515 15.55C30.845 15.2 31.25 14.925 31.73 14.725C32.21 14.525 32.76 14.425 33.38 14.425C33.49 14.425 33.6 14.435 33.71 14.455C33.82 14.465 33.93 14.48 34.04 14.5V16.24C33.94 16.22 33.845 16.205 33.755 16.195C33.665 16.175 33.57 16.165 33.47 16.165C33.06 16.165 32.715 16.22 32.435 16.33C32.165 16.44 31.945 16.59 31.775 16.78C31.605 16.96 31.485 17.18 31.415 17.44C31.345 17.69 31.31 17.96 31.31 18.25V22ZM39.1578 19.375C38.8278 19.375 38.4878 19.335 38.1378 19.255C37.7978 19.175 37.4828 19.065 37.1928 18.925C37.2828 19.355 37.4978 19.7 37.8378 19.96C38.1878 20.22 38.7328 20.35 39.4728 20.35C39.6328 20.35 39.8178 20.345 40.0278 20.335C40.2378 20.315 40.4528 20.295 40.6728 20.275C40.8928 20.255 41.1028 20.23 41.3028 20.2C41.5028 20.16 41.6728 20.115 41.8128 20.065V21.76C41.6328 21.81 41.4328 21.855 41.2128 21.895C41.0028 21.935 40.7878 21.97 40.5678 22C40.3478 22.03 40.1328 22.05 39.9228 22.06C39.7228 22.08 39.5328 22.09 39.3528 22.09C38.6828 22.09 38.0928 21.99 37.5828 21.79C37.0828 21.59 36.6628 21.32 36.3228 20.98C35.9928 20.63 35.7428 20.225 35.5728 19.765C35.4128 19.295 35.3328 18.8 35.3328 18.28C35.3328 17.74 35.4178 17.24 35.5878 16.78C35.7578 16.31 36.0028 15.9 36.3228 15.55C36.6528 15.2 37.0528 14.925 37.5228 14.725C38.0028 14.525 38.5478 14.425 39.1578 14.425C39.6178 14.425 40.0428 14.485 40.4328 14.605C40.8228 14.725 41.1578 14.895 41.4378 15.115C41.7278 15.335 41.9478 15.595 42.0978 15.895C42.2578 16.195 42.3378 16.53 42.3378 16.9C42.3378 17.27 42.2578 17.61 42.0978 17.92C41.9478 18.22 41.7328 18.48 41.4528 18.7C41.1728 18.91 40.8378 19.075 40.4478 19.195C40.0578 19.315 39.6278 19.375 39.1578 19.375ZM39.1728 17.635C39.5928 17.635 39.9228 17.575 40.1628 17.455C40.4028 17.325 40.5228 17.14 40.5228 16.9C40.5228 16.66 40.4028 16.48 40.1628 16.36C39.9328 16.23 39.6178 16.165 39.2178 16.165C38.6878 16.165 38.2678 16.27 37.9578 16.48C37.6578 16.68 37.4378 16.95 37.2978 17.29C37.5678 17.4 37.8678 17.485 38.1978 17.545C38.5378 17.605 38.8628 17.635 39.1728 17.635ZM76.06 11.5H74.26V15.37C74 15.08 73.685 14.85 73.315 14.68C72.955 14.51 72.535 14.425 72.055 14.425C71.525 14.425 71.035 14.525 70.585 14.725C70.135 14.925 69.75 15.2 69.43 15.55C69.11 15.89 68.86 16.295 68.68 16.765C68.5 17.225 68.41 17.725 68.41 18.265C68.41 18.765 68.49 19.245 68.65 19.705C68.81 20.165 69.05 20.57 69.37 20.92C69.7 21.27 70.105 21.55 70.585 21.76C71.065 21.97 71.62 22.075 72.25 22.075C72.86 22.075 73.4 21.975 73.87 21.775C74.35 21.575 74.75 21.305 75.07 20.965C75.4 20.615 75.645 20.21 75.805 19.75C75.975 19.28 76.06 18.78 76.06 18.25V11.5ZM70.675 19.78C70.515 19.58 70.395 19.35 70.315 19.09C70.245 18.83 70.21 18.55 70.21 18.25C70.21 17.95 70.245 17.67 70.315 17.41C70.395 17.15 70.515 16.925 70.675 16.735C70.845 16.535 71.06 16.38 71.32 16.27C71.58 16.16 71.895 16.105 72.265 16.105C72.885 16.105 73.37 16.28 73.72 16.63C74.08 16.97 74.26 17.51 74.26 18.25C74.26 18.99 74.08 19.535 73.72 19.885C73.37 20.225 72.885 20.395 72.265 20.395C71.895 20.395 71.58 20.34 71.32 20.23C71.06 20.12 70.845 19.97 70.675 19.78ZM80.8712 19.255C81.2212 19.335 81.5612 19.375 81.8912 19.375C82.3612 19.375 82.7912 19.315 83.1812 19.195C83.5712 19.075 83.9062 18.91 84.1862 18.7C84.4662 18.48 84.6812 18.22 84.8312 17.92C84.9912 17.61 85.0712 17.27 85.0712 16.9C85.0712 16.53 84.9912 16.195 84.8312 15.895C84.6812 15.595 84.4612 15.335 84.1712 15.115C83.8912 14.895 83.5562 14.725 83.1662 14.605C82.7762 14.485 82.3512 14.425 81.8912 14.425C81.2812 14.425 80.7362 14.525 80.2562 14.725C79.7862 14.925 79.3862 15.2 79.0562 15.55C78.7362 15.9 78.4912 16.31 78.3212 16.78C78.1512 17.24 78.0662 17.74 78.0662 18.28C78.0662 18.8 78.1462 19.295 78.3062 19.765C78.4762 20.225 78.7262 20.63 79.0562 20.98C79.3962 21.32 79.8162 21.59 80.3162 21.79C80.8262 21.99 81.4162 22.09 82.0862 22.09C82.2662 22.09 82.4562 22.08 82.6562 22.06C82.8662 22.05 83.0812 22.03 83.3012 22C83.5212 21.97 83.7362 21.935 83.9462 21.895C84.1662 21.855 84.3662 21.81 84.5462 21.76V20.065C84.4062 20.115 84.2362 20.16 84.0362 20.2C83.8362 20.23 83.6262 20.255 83.4062 20.275C83.1862 20.295 82.9712 20.315 82.7612 20.335C82.5512 20.345 82.3662 20.35 82.2062 20.35C81.4662 20.35 80.9212 20.22 80.5712 19.96C80.2312 19.7 80.0162 19.355 79.9262 18.925C80.2162 19.065 80.5312 19.175 80.8712 19.255ZM82.8962 17.455C82.6562 17.575 82.3262 17.635 81.9062 17.635C81.5962 17.635 81.2712 17.605 80.9312 17.545C80.6012 17.485 80.3012 17.4 80.0312 17.29C80.1712 16.95 80.3912 16.68 80.6912 16.48C81.0012 16.27 81.4212 16.165 81.9512 16.165C82.3512 16.165 82.6662 16.23 82.8962 16.36C83.1362 16.48 83.2562 16.66 83.2562 16.9C83.2562 17.14 83.1362 17.325 82.8962 17.455ZM87.2346 22H89.0346V11.5H87.2346V22ZM91.6332 11.68C91.4332 11.9 91.3331 12.17 91.3331 12.49C91.3331 12.81 91.4332 13.085 91.6332 13.315C91.8432 13.535 92.1282 13.645 92.4882 13.645C92.8482 13.645 93.1282 13.535 93.3282 13.315C93.5282 13.085 93.6282 12.81 93.6282 12.49C93.6282 12.18 93.5282 11.915 93.3282 11.695C93.1282 11.465 92.8482 11.35 92.4882 11.35C92.1282 11.35 91.8432 11.46 91.6332 11.68ZM101.418 14.5L99.1688 20.125L96.9188 14.5H95.1188L98.2688 22H100.069L103.218 14.5H101.418ZM91.5882 22H93.3881V14.5H91.5882V22ZM106.972 19.255C107.322 19.335 107.662 19.375 107.992 19.375C108.462 19.375 108.892 19.315 109.282 19.195C109.672 19.075 110.007 18.91 110.287 18.7C110.567 18.48 110.782 18.22 110.932 17.92C111.092 17.61 111.172 17.27 111.172 16.9C111.172 16.53 111.092 16.195 110.932 15.895C110.782 15.595 110.562 15.335 110.272 15.115C109.992 14.895 109.657 14.725 109.267 14.605C108.877 14.485 108.452 14.425 107.992 14.425C107.382 14.425 106.837 14.525 106.357 14.725C105.887 14.925 105.487 15.2 105.157 15.55C104.837 15.9 104.592 16.31 104.422 16.78C104.252 17.24 104.167 17.74 104.167 18.28C104.167 18.8 104.247 19.295 104.407 19.765C104.577 20.225 104.827 20.63 105.157 20.98C105.497 21.32 105.917 21.59 106.417 21.79C106.927 21.99 107.517 22.09 108.187 22.09C108.367 22.09 108.557 22.08 108.757 22.06C108.967 22.05 109.182 22.03 109.402 22C109.622 21.97 109.837 21.935 110.047 21.895C110.267 21.855 110.467 21.81 110.647 21.76V20.065C110.507 20.115 110.337 20.16 110.137 20.2C109.937 20.23 109.727 20.255 109.507 20.275C109.287 20.295 109.072 20.315 108.862 20.335C108.652 20.345 108.467 20.35 108.307 20.35C107.567 20.35 107.022 20.22 106.672 19.96C106.332 19.7 106.117 19.355 106.027 18.925C106.317 19.065 106.632 19.175 106.972 19.255ZM108.997 17.455C108.757 17.575 108.427 17.635 108.007 17.635C107.697 17.635 107.372 17.605 107.032 17.545C106.702 17.485 106.402 17.4 106.132 17.29C106.272 16.95 106.492 16.68 106.792 16.48C107.102 16.27 107.522 16.165 108.052 16.165C108.452 16.165 108.767 16.23 108.997 16.36C109.237 16.48 109.357 16.66 109.357 16.9C109.357 17.14 109.237 17.325 108.997 17.455ZM113.335 22H115.135V18.25C115.135 17.96 115.17 17.69 115.24 17.44C115.31 17.18 115.43 16.96 115.6 16.78C115.77 16.59 115.99 16.44 116.26 16.33C116.54 16.22 116.885 16.165 117.295 16.165C117.395 16.165 117.49 16.175 117.58 16.195C117.67 16.205 117.765 16.22 117.865 16.24V14.5C117.755 14.48 117.645 14.465 117.535 14.455C117.425 14.435 117.315 14.425 117.205 14.425C116.585 14.425 116.035 14.525 115.555 14.725C115.075 14.925 114.67 15.2 114.34 15.55C114.01 15.89 113.76 16.295 113.59 16.765C113.42 17.235 113.335 17.735 113.335 18.265V22ZM124.674 19.795C124.344 20.195 123.859 20.395 123.219 20.395C122.579 20.395 122.119 20.2 121.839 19.81C121.559 19.41 121.419 18.89 121.419 18.25V14.5H119.619V18.25C119.619 18.78 119.699 19.28 119.859 19.75C120.019 20.21 120.249 20.615 120.549 20.965C120.849 21.305 121.209 21.575 121.629 21.775C122.049 21.975 122.514 22.075 123.024 22.075C123.494 22.075 123.904 21.995 124.254 21.835C124.604 21.675 124.909 21.45 125.169 21.16V21.595C125.169 21.895 125.134 22.17 125.064 22.42C124.994 22.68 124.874 22.905 124.704 23.095C124.534 23.285 124.309 23.435 124.029 23.545C123.759 23.655 123.419 23.71 123.009 23.71C122.599 23.71 122.189 23.67 121.779 23.59C121.379 23.52 121.049 23.415 120.789 23.275V25.12C121.109 25.23 121.469 25.31 121.869 25.36C122.279 25.42 122.689 25.45 123.099 25.45C123.719 25.45 124.269 25.35 124.749 25.15C125.229 24.95 125.634 24.675 125.964 24.325C126.294 23.985 126.544 23.58 126.714 23.11C126.884 22.64 126.969 22.14 126.969 21.61V14.5H125.169V18.25C125.169 18.88 125.004 19.395 124.674 19.795Z" fill="#4B40E6" stroke="#4B40E6" stroke-width="0.5" stroke-linecap="round" stroke-linejoin="round"/>
</g>
<defs>
<clipPath id="clip0_2532_2053">
<rect width="127" height="30" fill="white" transform="translate(0.5)"/>
</clipPath>
</defs>
</svg>
