<svg width="25" height="24" viewBox="0 0 25 24" fill="none" xmlns="http://www.w3.org/2000/svg">
<path d="M22.1111 19.5354L18.3842 15.8109C18.3172 15.744 18.2262 15.7063 18.1314 15.7063C18.1314 15.7063 18.1314 15.7063 18.1312 15.7063C18.0366 15.7063 17.9456 15.744 17.8784 15.8109L17.2669 16.4229L16.1669 15.323C17.509 13.9116 18.3351 12.0057 18.3351 9.90888C18.3351 5.57216 14.8069 2.04395 10.4702 2.04395C6.13368 2.04371 2.60547 5.57192 2.60547 9.90864C2.60547 14.2456 6.13368 17.7736 10.4704 17.7736C12.4538 17.7736 14.2668 17.0339 15.6518 15.8183L16.7622 16.9284L16.25 17.4408C16.1106 17.5804 16.1106 17.8067 16.2502 17.946L19.9769 21.6705C20.0438 21.7375 20.1348 21.7751 20.2296 21.7751C20.3244 21.7751 20.4152 21.7375 20.4824 21.6705L22.1113 20.0407C22.1782 19.9737 22.2159 19.8827 22.2159 19.7879C22.2156 19.6931 22.178 19.6024 22.1111 19.5354ZM3.32012 9.90864C3.32012 5.96593 6.52769 2.75835 10.4704 2.75835C14.4131 2.75835 17.6207 5.96593 17.6207 9.90864C17.6207 13.8513 14.4131 17.0589 10.4704 17.0589C6.52769 17.0589 3.32012 13.8513 3.32012 9.90864ZM20.2291 20.9125L17.0082 17.6931L18.1319 16.5687L21.353 19.7882L20.2291 20.9125Z" fill="#4B40E6" stroke="#4B40E6" stroke-width="0.5"/>
</svg>
