<svg width="20" height="20" viewBox="0 0 20 20" fill="none" xmlns="http://www.w3.org/2000/svg">
<path d="M14.0394 7.07394C14.0863 7.02662 14.1502 7 14.2169 7C14.2835 7 14.3474 7.02662 14.3943 7.07394L14.9243 7.60386C14.9726 7.64922 15 7.71255 15 7.77883C15 7.84511 14.9726 7.90844 14.9243 7.9538L10.3299 12.5481C10.2597 12.6184 10.1644 12.658 10.065 12.6581L9.93501 12.6581C9.8356 12.658 9.7403 12.6184 9.67005 12.5481L5.07575 7.9538C5.02742 7.90844 5 7.84511 5 7.77883C5 7.71255 5.02742 7.64922 5.07575 7.60386L5.60567 7.07394C5.6526 7.02662 5.71649 7 5.78314 7C5.84979 7 5.91368 7.02662 5.96061 7.07394L10 11.1133L14.0394 7.07394Z" fill="#676767"/>
</svg>
