<svg width="20" height="20" viewBox="0 0 20 20" fill="none" xmlns="http://www.w3.org/2000/svg">
<path d="M9.71077 14.6636C9.76315 14.7159 9.80471 14.7779 9.83306 14.8462C9.86142 14.9146 9.87601 14.9878 9.87601 15.0618C9.87601 15.1358 9.86142 15.2091 9.83306 15.2774C9.80471 15.3457 9.76315 15.4078 9.71077 15.46L6.33607 18.8347C6.28332 18.8869 6.22108 18.9285 6.15271 18.9573C6.01512 19.0142 5.86059 19.0142 5.723 18.9573C5.65463 18.9285 5.5924 18.8869 5.53964 18.8347L2.16495 15.46C2.05933 15.3544 2 15.2112 2 15.0618C2 14.9125 2.05933 14.7692 2.16495 14.6636C2.27056 14.558 2.4138 14.4987 2.56316 14.4987C2.71252 14.4987 2.85576 14.558 2.96137 14.6636L5.37541 17.0788V1.56303C5.37541 1.41386 5.43467 1.27079 5.54015 1.16531C5.64563 1.05984 5.78869 1.00058 5.93786 1.00058C6.08703 1.00058 6.23009 1.05984 6.33557 1.16531C6.44105 1.27079 6.50031 1.41386 6.50031 1.56303V17.0788L8.91434 14.6636C8.96659 14.6112 9.02866 14.5697 9.09699 14.5413C9.16532 14.513 9.23857 14.4984 9.31256 14.4984C9.38654 14.4984 9.45979 14.513 9.52812 14.5413C9.59646 14.5697 9.65852 14.6112 9.71077 14.6636ZM17.8349 4.53951L14.4602 1.16481C14.4074 1.11264 14.3452 1.07102 14.2768 1.0422C14.1391 0.985934 13.9848 0.985934 13.8471 1.0422C13.7787 1.07102 13.7165 1.11264 13.6637 1.16481L10.289 4.53951C10.1834 4.64512 10.1241 4.78837 10.1241 4.93772C10.1241 5.08708 10.1834 5.23033 10.289 5.33594C10.3947 5.44155 10.5379 5.50089 10.6873 5.50089C10.8366 5.50089 10.9799 5.44155 11.0855 5.33594L13.4995 2.92078V18.4365C13.4995 18.5857 13.5588 18.7287 13.6642 18.8342C13.7697 18.9397 13.9128 18.999 14.062 18.999C14.2111 18.999 14.3542 18.9397 14.4597 18.8342C14.5651 18.7287 14.6244 18.5857 14.6244 18.4365V2.92078L17.0384 5.33594C17.0907 5.38823 17.1528 5.42972 17.2211 5.45802C17.2895 5.48632 17.3627 5.50089 17.4367 5.50089C17.5106 5.50089 17.5838 5.48632 17.6522 5.45802C17.7205 5.42972 17.7826 5.38823 17.8349 5.33594C17.8872 5.28364 17.9286 5.22156 17.9569 5.15324C17.9852 5.08491 17.9998 5.01168 17.9998 4.93772C17.9998 4.86377 17.9852 4.79054 17.9569 4.72221C17.9286 4.65389 17.8872 4.5918 17.8349 4.53951Z" fill="black"/>
</svg>
