<svg width="24" height="24" viewBox="0 0 24 24" fill="none" xmlns="http://www.w3.org/2000/svg">
<path d="M12.0696 13.8076C7.40577 13.8076 3.61133 17.6023 3.61133 22.2668C3.61133 22.4648 3.7718 22.6255 3.97006 22.6255H20.169C20.3671 22.6255 20.5278 22.4648 20.5278 22.2668C20.5278 17.6023 16.7336 13.8076 12.0696 13.8076ZM4.33693 21.9081C4.5249 17.8051 7.92139 14.5251 12.0696 14.5251C16.2177 14.5251 19.6144 17.8051 19.8022 21.9081H4.33693Z" fill="#676767" stroke="#676767" stroke-width="0.5"/>
<path d="M11.9285 3.19971C9.24328 3.19971 7.05859 5.3844 7.05859 8.06964C7.05859 10.7549 9.24328 12.9396 11.9285 12.9396C14.614 12.9396 16.7985 10.7549 16.7985 8.06964C16.7985 5.3844 14.6138 3.19971 11.9285 3.19971ZM11.9285 12.2221C9.63885 12.2221 7.77606 10.3593 7.77606 8.06964C7.77606 5.77996 9.63885 3.91717 11.9285 3.91717C14.2182 3.91717 16.081 5.77996 16.081 8.06964C16.081 10.3593 14.2182 12.2221 11.9285 12.2221Z" fill="#676767" stroke="#676767" stroke-width="0.5"/>
<path d="M6.01213 10.7355C6.21039 10.7355 6.37086 10.575 6.37086 10.3768V5.73427C6.37086 5.71131 6.36823 5.68907 6.36416 5.66731C7.32533 3.43861 9.4861 2.00727 11.9286 2.00727C14.4149 2.00727 16.6117 3.49051 17.5454 5.78975V10.3497C17.2446 11.0906 16.8076 11.7569 16.242 12.3299C16.1028 12.4711 16.1043 12.698 16.2454 12.8372C16.3152 12.9063 16.4063 12.9408 16.4974 12.9408C16.59 12.9408 16.6825 12.9051 16.7526 12.8341C17.3553 12.2235 17.8276 11.5178 18.162 10.7357H18.414C19.8918 10.7357 21.094 9.5335 21.094 8.05576C21.094 6.57801 19.8918 5.37578 18.414 5.37578H18.1466C17.0697 2.88784 14.6559 1.29004 11.9286 1.29004C9.19983 1.29004 6.78579 2.8876 5.70935 5.37578H5.50225C4.0245 5.37578 2.82227 6.57801 2.82227 8.05576C2.82227 9.5335 4.0245 10.7357 5.50225 10.7357H6.01213V10.7355ZM20.3765 8.05552C20.3765 9.1377 19.496 10.018 18.414 10.018H18.2629V6.093H18.414C19.4962 6.093 20.3765 6.97334 20.3765 8.05552ZM3.53973 8.05552C3.53973 6.97334 4.42007 6.093 5.50225 6.093H5.65339V10.018H5.50225C4.42007 10.018 3.53973 9.1377 3.53973 8.05552Z" fill="#676767" stroke="#676767" stroke-width="0.5"/>
</svg>
