<svg width="24" height="24" viewBox="0 0 24 24" fill="none" xmlns="http://www.w3.org/2000/svg">
<path d="M4.33984 16.8421C4.33984 18.0408 5.31509 19.0163 6.51402 19.0163C7.71295 19.0163 8.68819 18.0408 8.68819 16.8421C8.68819 15.6435 7.71295 14.668 6.51402 14.668C5.31509 14.668 4.33984 15.6432 4.33984 16.8421ZM7.97355 16.8421C7.97355 17.6468 7.3187 18.3017 6.51402 18.3017C5.70933 18.3017 5.05448 17.6468 5.05448 16.8421C5.05448 16.0375 5.70933 15.3826 6.51402 15.3826C7.3187 15.3826 7.97355 16.0375 7.97355 16.8421Z" fill="black" stroke="black" stroke-width="0.5"/>
<path d="M21.4914 8.72254C21.3442 8.59129 21.1186 8.60391 20.9868 8.75113L15.7969 14.5642L13.1251 11.8924C12.9855 11.7529 12.7594 11.7529 12.6198 11.8924C12.4802 12.032 12.4802 12.2581 12.6198 12.3977L15.5591 15.3368C15.6263 15.404 15.7171 15.4413 15.8119 15.4413C15.8152 15.4413 15.8186 15.4413 15.8219 15.4411C15.92 15.4383 16.0129 15.3954 16.0785 15.322L21.5202 9.22684C21.6515 9.07986 21.6386 8.8538 21.4914 8.72254Z" fill="black" stroke="black" stroke-width="0.5"/>
<path d="M15.9349 16.3348C15.7374 16.3348 15.5776 16.4949 15.5776 16.6922V20.248H2.92509V3.57304H15.5776V11.0594C15.5776 11.2566 15.7374 11.4167 15.9349 11.4167C16.1324 11.4167 16.2922 11.2566 16.2922 11.0594V3.21572C16.2922 3.01848 16.1324 2.8584 15.9349 2.8584H2.56777C2.37029 2.8584 2.21045 3.01848 2.21045 3.21572V20.6053C2.21045 20.8025 2.37029 20.9626 2.56777 20.9626H15.9349C16.1324 20.9626 16.2922 20.8025 16.2922 20.6053V16.6922C16.2922 16.4949 16.1324 16.3348 15.9349 16.3348Z" fill="black" stroke="black" stroke-width="0.5"/>
<path d="M11.7578 7.67655C11.9553 7.67655 12.1151 7.51647 12.1151 7.31923C12.1151 7.12199 11.9553 6.96191 11.7578 6.96191H4.579C4.38152 6.96191 4.22168 7.12199 4.22168 7.31923C4.22168 7.51647 4.38152 7.67655 4.579 7.67655H11.7578Z" fill="black" stroke="black" stroke-width="0.5"/>
<path d="M12.2031 10.4979C12.2031 10.3007 12.0432 10.1406 11.8457 10.1406H4.66884C4.47136 10.1406 4.31152 10.3007 4.31152 10.4979C4.31152 10.6952 4.47136 10.8553 4.66884 10.8553H11.8457C12.0432 10.8553 12.2031 10.6952 12.2031 10.4979Z" fill="black" stroke="black" stroke-width="0.5"/>
</svg>
