<svg width="32" height="24" viewBox="0 0 32 24" fill="none" xmlns="http://www.w3.org/2000/svg">
<path d="M5.38345 6C4.62521 6 4 6.62521 4 7.38345V20.1081C4 20.9158 4.65182 21.5676 5.45946 21.5676H7.45101C7.68285 22.9472 8.88197 24 10.3243 24C11.7667 24 12.9658 22.9472 13.1976 21.5676H17.6976C18.0568 21.5676 18.378 21.4155 18.625 21.1875C18.8777 21.4098 19.2008 21.5638 19.5676 21.5676H20.0997C20.3315 22.9472 21.5306 24 22.973 24C24.5788 24 25.8919 22.6869 25.8919 21.0811C25.8919 19.4753 24.5788 18.1622 22.973 18.1622C21.5306 18.1622 20.3315 19.2149 20.0997 20.5946H19.5676C19.4764 20.5946 19.3376 20.5319 19.2331 20.4274C19.1286 20.3228 19.0811 20.1974 19.0811 20.1081V10.8649C19.0811 10.6824 19.3851 10.3784 19.5676 10.3784H23.4595C23.8414 10.3784 24.3792 10.787 24.7517 11.2297C24.7555 11.2354 24.7631 11.2392 24.7669 11.2449L24.8429 11.3514H22.4865C21.7111 11.3514 21.027 11.9785 21.027 12.8108V14.7568C21.027 15.1615 21.2095 15.5169 21.4679 15.7753C21.7264 16.0338 22.0817 16.2162 22.4865 16.2162H27.3514V20.1081C27.3514 20.2905 27.0473 20.5946 26.8649 20.5946H25.8919V21.5676H26.8649C27.6725 21.5676 28.3243 20.9158 28.3243 20.1081V15.4257C28.3243 14.3121 27.549 13.3277 27.549 13.3277H27.5338L25.527 10.652V10.6368L25.5118 10.6216C25.0633 10.08 24.3906 9.40541 23.4595 9.40541H19.5676C19.3946 9.40541 19.235 9.44151 19.0811 9.49662V7.41385C19.0811 6.66702 18.492 6 17.7128 6H5.38345ZM5.38345 6.97297H17.7128C17.9219 6.97297 18.1081 7.17441 18.1081 7.41385V20.1841C18.1081 20.4122 17.9276 20.5946 17.6976 20.5946H13.1976C12.9658 19.2149 11.7667 18.1622 10.3243 18.1622C8.88197 18.1622 7.68285 19.2149 7.45101 20.5946H5.45946C5.27703 20.5946 4.97297 20.2886 4.97297 20.1081V7.38345C4.97297 7.15541 5.1516 6.97297 5.38345 6.97297ZM22.4865 12.3243H25.5726L26.7584 13.9054C26.7584 13.9054 27.1993 14.6598 27.2905 15.2432H22.4865C22.4048 15.2432 22.2736 15.1824 22.1672 15.076C22.0608 14.9696 22 14.8385 22 14.7568V12.8108C22 12.5657 22.2889 12.3243 22.4865 12.3243ZM10.3243 19.1351C11.4056 19.1351 12.2703 19.9998 12.2703 21.0811C12.2703 22.1624 11.4056 23.027 10.3243 23.027C9.24303 23.027 8.37838 22.1624 8.37838 21.0811C8.37838 19.9998 9.24303 19.1351 10.3243 19.1351ZM22.973 19.1351C24.0543 19.1351 24.9189 19.9998 24.9189 21.0811C24.9189 22.1624 24.0543 23.027 22.973 23.027C21.8917 23.027 21.027 22.1624 21.027 21.0811C21.027 19.9998 21.8917 19.1351 22.973 19.1351Z" fill="#A5A6A6"/>
</svg>
