<svg width="36" height="37" viewBox="0 0 36 37" fill="none" xmlns="http://www.w3.org/2000/svg">
<path d="M18.4239 19.7805C13.6272 19.7805 9.72461 23.8292 9.72461 28.8053C9.72461 29.0033 9.88508 29.164 10.0833 29.164H26.7645C26.9625 29.164 27.1232 29.0033 27.1232 28.8053C27.1232 23.8289 23.2209 19.7805 18.4239 19.7805ZM10.4495 28.4466C10.6305 24.0318 14.1382 20.498 18.4239 20.498C22.7096 20.498 26.2173 24.0318 26.3986 28.4466H10.4495Z" fill="#4B40E6" stroke="#4B40E6" stroke-width="0.5"/>
<path d="M18.2733 18.7948C21.0399 18.7948 23.2906 16.4654 23.2906 13.602C23.2906 10.7386 21.0401 8.40918 18.2733 8.40918C15.5066 8.40918 13.2559 10.7388 13.2559 13.602C13.2559 16.4651 15.5066 18.7948 18.2733 18.7948ZM18.2733 9.12665C20.6443 9.12665 22.5731 11.1344 22.5731 13.602C22.5731 16.0696 20.6443 18.0773 18.2733 18.0773C15.9021 18.0773 13.9733 16.0696 13.9733 13.602C13.9733 11.1344 15.9024 9.12665 18.2733 9.12665Z" fill="#4B40E6" stroke="#4B40E6" stroke-width="0.5"/>
</svg>
