<svg width="160" height="52" viewBox="0 0 160 52" fill="none" xmlns="http://www.w3.org/2000/svg">
<g filter="url(#filter0_d_2601_445)">
<rect width="152" height="44" rx="5" fill="#96E588" shape-rendering="crispEdges"/>
<path d="M30.2266 21V21.625C30.2266 22.4844 30.1146 23.2552 29.8906 23.9375C29.6667 24.6198 29.3464 25.2005 28.9297 25.6797C28.5182 26.1589 28.0234 26.526 27.4453 26.7812C26.8672 27.0312 26.2266 27.1562 25.5234 27.1562C24.8255 27.1562 24.1875 27.0312 23.6094 26.7812C23.0365 26.526 22.5391 26.1589 22.1172 25.6797C21.6953 25.2005 21.3672 24.6198 21.1328 23.9375C20.9036 23.2552 20.7891 22.4844 20.7891 21.625V21C20.7891 20.1406 20.9036 19.3724 21.1328 18.6953C21.362 18.013 21.6849 17.4323 22.1016 16.9531C22.5234 16.4688 23.0208 16.1016 23.5938 15.8516C24.1719 15.5964 24.8099 15.4688 25.5078 15.4688C26.2109 15.4688 26.8516 15.5964 27.4297 15.8516C28.0078 16.1016 28.5052 16.4688 28.9219 16.9531C29.3385 17.4323 29.6589 18.013 29.8828 18.6953C30.112 19.3724 30.2266 20.1406 30.2266 21ZM28.2656 21.625V20.9844C28.2656 20.349 28.2031 19.7891 28.0781 19.3047C27.9583 18.8151 27.7786 18.4062 27.5391 18.0781C27.3047 17.7448 27.0156 17.4948 26.6719 17.3281C26.3281 17.1562 25.9401 17.0703 25.5078 17.0703C25.0755 17.0703 24.6901 17.1562 24.3516 17.3281C24.013 17.4948 23.724 17.7448 23.4844 18.0781C23.25 18.4062 23.0703 18.8151 22.9453 19.3047C22.8203 19.7891 22.7578 20.349 22.7578 20.9844V21.625C22.7578 22.2604 22.8203 22.8229 22.9453 23.3125C23.0703 23.8021 23.2526 24.2161 23.4922 24.5547C23.737 24.888 24.0286 25.1406 24.3672 25.3125C24.7057 25.4792 25.0911 25.5625 25.5234 25.5625C25.9609 25.5625 26.349 25.4792 26.6875 25.3125C27.026 25.1406 27.3125 24.888 27.5469 24.5547C27.7812 24.2161 27.9583 23.8021 28.0781 23.3125C28.2031 22.8229 28.2656 22.2604 28.2656 21.625ZM35.2969 27H33.4141V17.7344C33.4141 17.1042 33.5312 16.5755 33.7656 16.1484C34.0052 15.7161 34.3464 15.3906 34.7891 15.1719C35.2318 14.9479 35.7552 14.8359 36.3594 14.8359C36.5469 14.8359 36.7318 14.849 36.9141 14.875C37.0964 14.8958 37.2734 14.9297 37.4453 14.9766L37.3984 16.4297C37.2943 16.4036 37.1797 16.3854 37.0547 16.375C36.9349 16.3646 36.8047 16.3594 36.6641 16.3594C36.3776 16.3594 36.1302 16.4141 35.9219 16.5234C35.7188 16.6276 35.5625 16.7812 35.4531 16.9844C35.349 17.1875 35.2969 17.4375 35.2969 17.7344V27ZM37.0391 18.5469V19.9219H32.1172V18.5469H37.0391ZM41.7031 27H39.8203V17.7344C39.8203 17.1042 39.9375 16.5755 40.1719 16.1484C40.4115 15.7161 40.7526 15.3906 41.1953 15.1719C41.638 14.9479 42.1615 14.8359 42.7656 14.8359C42.9531 14.8359 43.138 14.849 43.3203 14.875C43.5026 14.8958 43.6797 14.9297 43.8516 14.9766L43.8047 16.4297C43.7005 16.4036 43.5859 16.3854 43.4609 16.375C43.3411 16.3646 43.2109 16.3594 43.0703 16.3594C42.7839 16.3594 42.5365 16.4141 42.3281 16.5234C42.125 16.6276 41.9688 16.7812 41.8594 16.9844C41.7552 17.1875 41.7031 17.4375 41.7031 17.7344V27ZM43.4453 18.5469V19.9219H38.5234V18.5469H43.4453ZM49.1016 27.1562C48.4766 27.1562 47.9115 27.0547 47.4062 26.8516C46.9062 26.6432 46.4792 26.3542 46.125 25.9844C45.776 25.6146 45.5078 25.1797 45.3203 24.6797C45.1328 24.1797 45.0391 23.6406 45.0391 23.0625V22.75C45.0391 22.0885 45.1354 21.4896 45.3281 20.9531C45.5208 20.4167 45.7891 19.9583 46.1328 19.5781C46.4766 19.1927 46.8828 18.8984 47.3516 18.6953C47.8203 18.4922 48.3281 18.3906 48.875 18.3906C49.4792 18.3906 50.0078 18.4922 50.4609 18.6953C50.9141 18.8984 51.2891 19.1849 51.5859 19.5547C51.888 19.9193 52.112 20.3542 52.2578 20.8594C52.4089 21.3646 52.4844 21.9219 52.4844 22.5312V23.3359H45.9531V21.9844H50.625V21.8359C50.6146 21.4974 50.5469 21.1797 50.4219 20.8828C50.3021 20.5859 50.1172 20.3464 49.8672 20.1641C49.6172 19.9818 49.2839 19.8906 48.8672 19.8906C48.5547 19.8906 48.276 19.9583 48.0312 20.0938C47.7917 20.224 47.5911 20.4141 47.4297 20.6641C47.2682 20.9141 47.1432 21.2161 47.0547 21.5703C46.9714 21.9193 46.9297 22.3125 46.9297 22.75V23.0625C46.9297 23.4323 46.9792 23.776 47.0781 24.0938C47.1823 24.4062 47.3333 24.6797 47.5312 24.9141C47.7292 25.1484 47.9688 25.3333 48.25 25.4688C48.5312 25.599 48.8516 25.6641 49.2109 25.6641C49.6641 25.6641 50.0677 25.5729 50.4219 25.3906C50.776 25.2083 51.0833 24.9505 51.3438 24.6172L52.3359 25.5781C52.1536 25.8438 51.9167 26.099 51.625 26.3438C51.3333 26.5833 50.9766 26.7786 50.5547 26.9297C50.138 27.0807 49.6536 27.1562 49.1016 27.1562ZM56.5938 20.1562V27H54.7109V18.5469H56.5078L56.5938 20.1562ZM59.1797 18.4922L59.1641 20.2422C59.0495 20.2214 58.9245 20.2057 58.7891 20.1953C58.6589 20.1849 58.5286 20.1797 58.3984 20.1797C58.0755 20.1797 57.7917 20.2266 57.5469 20.3203C57.3021 20.4089 57.0964 20.5391 56.9297 20.7109C56.7682 20.8776 56.6432 21.0807 56.5547 21.3203C56.4661 21.5599 56.4141 21.8281 56.3984 22.125L55.9688 22.1562C55.9688 21.625 56.0208 21.1328 56.125 20.6797C56.2292 20.2266 56.3854 19.8281 56.5938 19.4844C56.8073 19.1406 57.0729 18.8724 57.3906 18.6797C57.7135 18.487 58.0859 18.3906 58.5078 18.3906C58.6224 18.3906 58.7448 18.401 58.875 18.4219C59.0104 18.4427 59.112 18.4661 59.1797 18.4922ZM67.7266 20.2656V27H65.8438V18.5469H67.6172L67.7266 20.2656ZM67.4219 22.4609L66.7812 22.4531C66.7812 21.8698 66.8542 21.3307 67 20.8359C67.1458 20.3411 67.3594 19.9115 67.6406 19.5469C67.9219 19.1771 68.2708 18.8932 68.6875 18.6953C69.1094 18.4922 69.5964 18.3906 70.1484 18.3906C70.5339 18.3906 70.8854 18.4479 71.2031 18.5625C71.526 18.6719 71.8047 18.8464 72.0391 19.0859C72.2786 19.3255 72.4609 19.6328 72.5859 20.0078C72.7161 20.3828 72.7812 20.8359 72.7812 21.3672V27H70.8984V21.5312C70.8984 21.1198 70.8359 20.7969 70.7109 20.5625C70.5911 20.3281 70.4167 20.1615 70.1875 20.0625C69.9635 19.9583 69.6953 19.9062 69.3828 19.9062C69.0286 19.9062 68.7266 19.974 68.4766 20.1094C68.2318 20.2448 68.0312 20.4297 67.875 20.6641C67.7188 20.8984 67.6042 21.1693 67.5312 21.4766C67.4583 21.7839 67.4219 22.112 67.4219 22.4609ZM72.6641 21.9609L71.7812 22.1562C71.7812 21.6458 71.8516 21.1641 71.9922 20.7109C72.138 20.2526 72.349 19.8516 72.625 19.5078C72.9062 19.1589 73.2526 18.8854 73.6641 18.6875C74.0755 18.4896 74.5469 18.3906 75.0781 18.3906C75.5104 18.3906 75.8958 18.4505 76.2344 18.5703C76.5781 18.6849 76.8698 18.8672 77.1094 19.1172C77.349 19.3672 77.5312 19.6927 77.6562 20.0938C77.7812 20.4896 77.8438 20.9688 77.8438 21.5312V27H75.9531V21.5234C75.9531 21.0964 75.8906 20.7656 75.7656 20.5312C75.6458 20.2969 75.474 20.1354 75.25 20.0469C75.026 19.9531 74.7578 19.9062 74.4453 19.9062C74.1536 19.9062 73.8958 19.9609 73.6719 20.0703C73.4531 20.1745 73.2682 20.3229 73.1172 20.5156C72.9661 20.7031 72.8516 20.9193 72.7734 21.1641C72.7005 21.4089 72.6641 21.6745 72.6641 21.9609ZM82.9844 26.0781L85.2812 18.5469H87.2969L83.9062 28.2891C83.8281 28.4974 83.7266 28.724 83.6016 28.9688C83.4766 29.2135 83.3125 29.4453 83.1094 29.6641C82.9115 29.888 82.6641 30.0677 82.3672 30.2031C82.0703 30.3438 81.7109 30.4141 81.2891 30.4141C81.1224 30.4141 80.9609 30.3984 80.8047 30.3672C80.6536 30.3411 80.5104 30.3125 80.375 30.2812L80.3672 28.8438C80.4193 28.849 80.4818 28.8542 80.5547 28.8594C80.6328 28.8646 80.6953 28.8672 80.7422 28.8672C81.0547 28.8672 81.3151 28.8281 81.5234 28.75C81.7318 28.6771 81.901 28.5573 82.0312 28.3906C82.1667 28.224 82.2812 28 82.375 27.7188L82.9844 26.0781ZM81.6875 18.5469L83.6953 24.875L84.0312 26.8594L82.7266 27.1953L79.6562 18.5469H81.6875ZM95.75 20.1719V30.25H93.8672V18.5469H95.6016L95.75 20.1719ZM101.258 22.6953V22.8594C101.258 23.474 101.185 24.0443 101.039 24.5703C100.898 25.0911 100.688 25.5469 100.406 25.9375C100.13 26.3229 99.7891 26.6224 99.3828 26.8359C98.9766 27.0495 98.5078 27.1562 97.9766 27.1562C97.4505 27.1562 96.9896 27.0599 96.5938 26.8672C96.2031 26.6693 95.8724 26.3906 95.6016 26.0312C95.3307 25.6719 95.112 25.25 94.9453 24.7656C94.7839 24.276 94.6693 23.7396 94.6016 23.1562V22.5234C94.6693 21.9036 94.7839 21.3411 94.9453 20.8359C95.112 20.3307 95.3307 19.8958 95.6016 19.5312C95.8724 19.1667 96.2031 18.8854 96.5938 18.6875C96.9844 18.4896 97.4401 18.3906 97.9609 18.3906C98.4922 18.3906 98.9635 18.4948 99.375 18.7031C99.7865 18.9062 100.133 19.1979 100.414 19.5781C100.695 19.9531 100.906 20.4062 101.047 20.9375C101.188 21.4635 101.258 22.0495 101.258 22.6953ZM99.375 22.8594V22.6953C99.375 22.3047 99.3385 21.9427 99.2656 21.6094C99.1927 21.2708 99.0781 20.974 98.9219 20.7188C98.7656 20.4635 98.5651 20.2656 98.3203 20.125C98.0807 19.9792 97.7917 19.9062 97.4531 19.9062C97.1198 19.9062 96.8333 19.9635 96.5938 20.0781C96.3542 20.1875 96.1536 20.3411 95.9922 20.5391C95.8307 20.737 95.7057 20.9688 95.6172 21.2344C95.5286 21.4948 95.4661 21.7786 95.4297 22.0859V23.6016C95.4922 23.9766 95.599 24.3203 95.75 24.6328C95.901 24.9453 96.1146 25.1953 96.3906 25.3828C96.6719 25.5651 97.0312 25.6562 97.4688 25.6562C97.8073 25.6562 98.0964 25.5833 98.3359 25.4375C98.5755 25.2917 98.7708 25.0911 98.9219 24.8359C99.0781 24.5755 99.1927 24.276 99.2656 23.9375C99.3385 23.599 99.375 23.2396 99.375 22.8594ZM105.5 20.1562V27H103.617V18.5469H105.414L105.5 20.1562ZM108.086 18.4922L108.07 20.2422C107.956 20.2214 107.831 20.2057 107.695 20.1953C107.565 20.1849 107.435 20.1797 107.305 20.1797C106.982 20.1797 106.698 20.2266 106.453 20.3203C106.208 20.4089 106.003 20.5391 105.836 20.7109C105.674 20.8776 105.549 21.0807 105.461 21.3203C105.372 21.5599 105.32 21.8281 105.305 22.125L104.875 22.1562C104.875 21.625 104.927 21.1328 105.031 20.6797C105.135 20.2266 105.292 19.8281 105.5 19.4844C105.714 19.1406 105.979 18.8724 106.297 18.6797C106.62 18.487 106.992 18.3906 107.414 18.3906C107.529 18.3906 107.651 18.401 107.781 18.4219C107.917 18.4427 108.018 18.4661 108.086 18.4922ZM112.031 18.5469V27H110.141V18.5469H112.031ZM110.016 16.3281C110.016 16.0417 110.109 15.8047 110.297 15.6172C110.49 15.4245 110.755 15.3281 111.094 15.3281C111.427 15.3281 111.69 15.4245 111.883 15.6172C112.076 15.8047 112.172 16.0417 112.172 16.3281C112.172 16.6094 112.076 16.8438 111.883 17.0312C111.69 17.2188 111.427 17.3125 111.094 17.3125C110.755 17.3125 110.49 17.2188 110.297 17.0312C110.109 16.8438 110.016 16.6094 110.016 16.3281ZM118.297 25.6562C118.604 25.6562 118.88 25.5964 119.125 25.4766C119.375 25.3516 119.576 25.1797 119.727 24.9609C119.883 24.7422 119.969 24.4896 119.984 24.2031H121.758C121.747 24.75 121.586 25.2474 121.273 25.6953C120.961 26.1432 120.547 26.5 120.031 26.7656C119.516 27.026 118.945 27.1562 118.32 27.1562C117.674 27.1562 117.112 27.0469 116.633 26.8281C116.154 26.6042 115.755 26.2969 115.438 25.9062C115.12 25.5156 114.88 25.0651 114.719 24.5547C114.562 24.0443 114.484 23.4974 114.484 22.9141V22.6406C114.484 22.0573 114.562 21.5104 114.719 21C114.88 20.4844 115.12 20.0312 115.438 19.6406C115.755 19.25 116.154 18.9453 116.633 18.7266C117.112 18.5026 117.672 18.3906 118.312 18.3906C118.99 18.3906 119.583 18.526 120.094 18.7969C120.604 19.0625 121.005 19.4349 121.297 19.9141C121.594 20.388 121.747 20.9401 121.758 21.5703H119.984C119.969 21.2578 119.891 20.9766 119.75 20.7266C119.615 20.4714 119.422 20.2682 119.172 20.1172C118.927 19.9661 118.633 19.8906 118.289 19.8906C117.909 19.8906 117.594 19.9688 117.344 20.125C117.094 20.276 116.898 20.4844 116.758 20.75C116.617 21.0104 116.516 21.3047 116.453 21.6328C116.396 21.9557 116.367 22.2917 116.367 22.6406V22.9141C116.367 23.263 116.396 23.6016 116.453 23.9297C116.51 24.2578 116.609 24.5521 116.75 24.8125C116.896 25.0677 117.094 25.2734 117.344 25.4297C117.594 25.5807 117.911 25.6562 118.297 25.6562ZM127.68 27.1562C127.055 27.1562 126.49 27.0547 125.984 26.8516C125.484 26.6432 125.057 26.3542 124.703 25.9844C124.354 25.6146 124.086 25.1797 123.898 24.6797C123.711 24.1797 123.617 23.6406 123.617 23.0625V22.75C123.617 22.0885 123.714 21.4896 123.906 20.9531C124.099 20.4167 124.367 19.9583 124.711 19.5781C125.055 19.1927 125.461 18.8984 125.93 18.6953C126.398 18.4922 126.906 18.3906 127.453 18.3906C128.057 18.3906 128.586 18.4922 129.039 18.6953C129.492 18.8984 129.867 19.1849 130.164 19.5547C130.466 19.9193 130.69 20.3542 130.836 20.8594C130.987 21.3646 131.062 21.9219 131.062 22.5312V23.3359H124.531V21.9844H129.203V21.8359C129.193 21.4974 129.125 21.1797 129 20.8828C128.88 20.5859 128.695 20.3464 128.445 20.1641C128.195 19.9818 127.862 19.8906 127.445 19.8906C127.133 19.8906 126.854 19.9583 126.609 20.0938C126.37 20.224 126.169 20.4141 126.008 20.6641C125.846 20.9141 125.721 21.2161 125.633 21.5703C125.549 21.9193 125.508 22.3125 125.508 22.75V23.0625C125.508 23.4323 125.557 23.776 125.656 24.0938C125.76 24.4062 125.911 24.6797 126.109 24.9141C126.307 25.1484 126.547 25.3333 126.828 25.4688C127.109 25.599 127.43 25.6641 127.789 25.6641C128.242 25.6641 128.646 25.5729 129 25.3906C129.354 25.2083 129.661 24.9505 129.922 24.6172L130.914 25.5781C130.732 25.8438 130.495 26.099 130.203 26.3438C129.911 26.5833 129.555 26.7786 129.133 26.9297C128.716 27.0807 128.232 27.1562 127.68 27.1562Z" fill="#4B40E6"/>
</g>
<defs>
<filter id="filter0_d_2601_445" x="0" y="0" width="160" height="52" filterUnits="userSpaceOnUse" color-interpolation-filters="sRGB">
<feFlood flood-opacity="0" result="BackgroundImageFix"/>
<feColorMatrix in="SourceAlpha" type="matrix" values="0 0 0 0 0 0 0 0 0 0 0 0 0 0 0 0 0 0 127 0" result="hardAlpha"/>
<feOffset dx="4" dy="4"/>
<feGaussianBlur stdDeviation="2"/>
<feComposite in2="hardAlpha" operator="out"/>
<feColorMatrix type="matrix" values="0 0 0 0 0 0 0 0 0 0 0 0 0 0 0 0 0 0 0.1 0"/>
<feBlend mode="normal" in2="BackgroundImageFix" result="effect1_dropShadow_2601_445"/>
<feBlend mode="normal" in="SourceGraphic" in2="effect1_dropShadow_2601_445" result="shape"/>
</filter>
</defs>
</svg>
