<svg width="161" height="52" viewBox="0 0 161 52" fill="none" xmlns="http://www.w3.org/2000/svg">
<g filter="url(#filter0_d_2601_447)">
<rect width="153" height="44" rx="5" fill="#4B40E6" shape-rendering="crispEdges"/>
<path d="M40.8359 15.625V27H38.8906V15.625H40.8359ZM44.4062 15.625V17.1875H35.3516V15.625H44.4062ZM50.1875 25.3047V21.2734C50.1875 20.9714 50.1328 20.7109 50.0234 20.4922C49.9141 20.2734 49.7474 20.1042 49.5234 19.9844C49.3047 19.8646 49.0286 19.8047 48.6953 19.8047C48.388 19.8047 48.1224 19.8568 47.8984 19.9609C47.6745 20.0651 47.5 20.2057 47.375 20.3828C47.25 20.5599 47.1875 20.7604 47.1875 20.9844H45.3125C45.3125 20.651 45.3932 20.3281 45.5547 20.0156C45.7161 19.7031 45.9505 19.4245 46.2578 19.1797C46.5651 18.9349 46.9323 18.7422 47.3594 18.6016C47.7865 18.4609 48.2656 18.3906 48.7969 18.3906C49.4323 18.3906 49.9948 18.4974 50.4844 18.7109C50.9792 18.9245 51.3672 19.2474 51.6484 19.6797C51.9349 20.1068 52.0781 20.6432 52.0781 21.2891V25.0469C52.0781 25.4323 52.1042 25.7786 52.1562 26.0859C52.2135 26.388 52.2943 26.651 52.3984 26.875V27H50.4688C50.3802 26.7969 50.3099 26.5391 50.2578 26.2266C50.2109 25.9089 50.1875 25.6016 50.1875 25.3047ZM50.4609 21.8594L50.4766 23.0234H49.125C48.776 23.0234 48.4688 23.0573 48.2031 23.125C47.9375 23.1875 47.7161 23.2812 47.5391 23.4062C47.362 23.5312 47.2292 23.6823 47.1406 23.8594C47.0521 24.0365 47.0078 24.237 47.0078 24.4609C47.0078 24.6849 47.0599 24.8906 47.1641 25.0781C47.2682 25.2604 47.4193 25.4036 47.6172 25.5078C47.8203 25.612 48.0651 25.6641 48.3516 25.6641C48.737 25.6641 49.0729 25.5859 49.3594 25.4297C49.651 25.2682 49.8802 25.0729 50.0469 24.8438C50.2135 24.6094 50.3021 24.388 50.3125 24.1797L50.9219 25.0156C50.8594 25.2292 50.7526 25.4583 50.6016 25.7031C50.4505 25.9479 50.2526 26.1823 50.0078 26.4062C49.7682 26.625 49.4792 26.8047 49.1406 26.9453C48.8073 27.0859 48.4219 27.1562 47.9844 27.1562C47.4323 27.1562 46.9401 27.0469 46.5078 26.8281C46.0755 26.6042 45.737 26.3047 45.4922 25.9297C45.2474 25.5495 45.125 25.1198 45.125 24.6406C45.125 24.1927 45.2083 23.7969 45.375 23.4531C45.5469 23.1042 45.7969 22.8125 46.125 22.5781C46.4583 22.3438 46.8646 22.1667 47.3438 22.0469C47.8229 21.9219 48.3698 21.8594 48.9844 21.8594H50.4609ZM56.6953 15V27H54.8047V15H56.6953ZM61.9453 18.5469L58.2656 22.625L56.25 24.6875L55.7578 23.0938L57.2812 21.2109L59.6719 18.5469H61.9453ZM60.0781 27L57.3359 23.0312L58.5234 21.7109L62.2578 27H60.0781ZM67.4609 27.1562C66.8359 27.1562 66.2708 27.0547 65.7656 26.8516C65.2656 26.6432 64.8385 26.3542 64.4844 25.9844C64.1354 25.6146 63.8672 25.1797 63.6797 24.6797C63.4922 24.1797 63.3984 23.6406 63.3984 23.0625V22.75C63.3984 22.0885 63.4948 21.4896 63.6875 20.9531C63.8802 20.4167 64.1484 19.9583 64.4922 19.5781C64.8359 19.1927 65.2422 18.8984 65.7109 18.6953C66.1797 18.4922 66.6875 18.3906 67.2344 18.3906C67.8385 18.3906 68.3672 18.4922 68.8203 18.6953C69.2734 18.8984 69.6484 19.1849 69.9453 19.5547C70.2474 19.9193 70.4714 20.3542 70.6172 20.8594C70.7682 21.3646 70.8438 21.9219 70.8438 22.5312V23.3359H64.3125V21.9844H68.9844V21.8359C68.974 21.4974 68.9062 21.1797 68.7812 20.8828C68.6615 20.5859 68.4766 20.3464 68.2266 20.1641C67.9766 19.9818 67.6432 19.8906 67.2266 19.8906C66.9141 19.8906 66.6354 19.9583 66.3906 20.0938C66.151 20.224 65.9505 20.4141 65.7891 20.6641C65.6276 20.9141 65.5026 21.2161 65.4141 21.5703C65.3307 21.9193 65.2891 22.3125 65.2891 22.75V23.0625C65.2891 23.4323 65.3385 23.776 65.4375 24.0938C65.5417 24.4062 65.6927 24.6797 65.8906 24.9141C66.0885 25.1484 66.3281 25.3333 66.6094 25.4688C66.8906 25.599 67.2109 25.6641 67.5703 25.6641C68.0234 25.6641 68.4271 25.5729 68.7812 25.3906C69.1354 25.2083 69.4427 24.9505 69.7031 24.6172L70.6953 25.5781C70.513 25.8438 70.276 26.099 69.9844 26.3438C69.6927 26.5833 69.3359 26.7786 68.9141 26.9297C68.4974 27.0807 68.013 27.1562 67.4609 27.1562ZM77.4375 22.8672V22.6875C77.4375 22.0781 77.526 21.513 77.7031 20.9922C77.8802 20.4661 78.1354 20.0104 78.4688 19.625C78.8073 19.2344 79.2188 18.9323 79.7031 18.7188C80.1927 18.5 80.7448 18.3906 81.3594 18.3906C81.9792 18.3906 82.5312 18.5 83.0156 18.7188C83.5052 18.9323 83.9193 19.2344 84.2578 19.625C84.5964 20.0104 84.8542 20.4661 85.0312 20.9922C85.2083 21.513 85.2969 22.0781 85.2969 22.6875V22.8672C85.2969 23.4766 85.2083 24.0417 85.0312 24.5625C84.8542 25.0833 84.5964 25.5391 84.2578 25.9297C83.9193 26.3151 83.5078 26.6172 83.0234 26.8359C82.5391 27.0495 81.9896 27.1562 81.375 27.1562C80.7552 27.1562 80.2005 27.0495 79.7109 26.8359C79.2266 26.6172 78.8151 26.3151 78.4766 25.9297C78.138 25.5391 77.8802 25.0833 77.7031 24.5625C77.526 24.0417 77.4375 23.4766 77.4375 22.8672ZM79.3203 22.6875V22.8672C79.3203 23.2474 79.3594 23.6068 79.4375 23.9453C79.5156 24.2839 79.638 24.5807 79.8047 24.8359C79.9714 25.0911 80.1849 25.2917 80.4453 25.4375C80.7057 25.5833 81.0156 25.6562 81.375 25.6562C81.724 25.6562 82.026 25.5833 82.2812 25.4375C82.5417 25.2917 82.7552 25.0911 82.9219 24.8359C83.0885 24.5807 83.2109 24.2839 83.2891 23.9453C83.3724 23.6068 83.4141 23.2474 83.4141 22.8672V22.6875C83.4141 22.3125 83.3724 21.9583 83.2891 21.625C83.2109 21.2865 83.0859 20.987 82.9141 20.7266C82.7474 20.4661 82.5339 20.263 82.2734 20.1172C82.0182 19.9661 81.7135 19.8906 81.3594 19.8906C81.0052 19.8906 80.6979 19.9661 80.4375 20.1172C80.1823 20.263 79.9714 20.4661 79.8047 20.7266C79.638 20.987 79.5156 21.2865 79.4375 21.625C79.3594 21.9583 79.3203 22.3125 79.3203 22.6875ZM89.5156 20.1562V27H87.6328V18.5469H89.4297L89.5156 20.1562ZM92.1016 18.4922L92.0859 20.2422C91.9714 20.2214 91.8464 20.2057 91.7109 20.1953C91.5807 20.1849 91.4505 20.1797 91.3203 20.1797C90.9974 20.1797 90.7135 20.2266 90.4688 20.3203C90.224 20.4089 90.0182 20.5391 89.8516 20.7109C89.6901 20.8776 89.5651 21.0807 89.4766 21.3203C89.388 21.5599 89.3359 21.8281 89.3203 22.125L88.8906 22.1562C88.8906 21.625 88.9427 21.1328 89.0469 20.6797C89.151 20.2266 89.3073 19.8281 89.5156 19.4844C89.7292 19.1406 89.9948 18.8724 90.3125 18.6797C90.6354 18.487 91.0078 18.3906 91.4297 18.3906C91.5443 18.3906 91.6667 18.401 91.7969 18.4219C91.9323 18.4427 92.0339 18.4661 92.1016 18.4922ZM99.0312 25.25V15H100.922V27H99.2109L99.0312 25.25ZM93.5312 22.8672V22.7031C93.5312 22.0625 93.6068 21.4792 93.7578 20.9531C93.9089 20.4219 94.1276 19.9661 94.4141 19.5859C94.7005 19.2005 95.0495 18.9062 95.4609 18.7031C95.8724 18.4948 96.3359 18.3906 96.8516 18.3906C97.362 18.3906 97.8099 18.4896 98.1953 18.6875C98.5807 18.8854 98.9089 19.1693 99.1797 19.5391C99.4505 19.9036 99.6667 20.3411 99.8281 20.8516C99.9896 21.3568 100.104 21.9193 100.172 22.5391V23.0625C100.104 23.6667 99.9896 24.2188 99.8281 24.7188C99.6667 25.2188 99.4505 25.651 99.1797 26.0156C98.9089 26.3802 98.5781 26.6615 98.1875 26.8594C97.8021 27.0573 97.3516 27.1562 96.8359 27.1562C96.3255 27.1562 95.8646 27.0495 95.4531 26.8359C95.0469 26.6224 94.7005 26.3229 94.4141 25.9375C94.1276 25.5521 93.9089 25.099 93.7578 24.5781C93.6068 24.0521 93.5312 23.4818 93.5312 22.8672ZM95.4141 22.7031V22.8672C95.4141 23.2526 95.4479 23.612 95.5156 23.9453C95.5885 24.2786 95.7005 24.5729 95.8516 24.8281C96.0026 25.0781 96.1979 25.276 96.4375 25.4219C96.6823 25.5625 96.974 25.6328 97.3125 25.6328C97.7396 25.6328 98.0911 25.5391 98.3672 25.3516C98.6432 25.1641 98.8594 24.9115 99.0156 24.5938C99.1771 24.2708 99.2865 23.9115 99.3438 23.5156V22.1016C99.3125 21.7943 99.2474 21.5078 99.1484 21.2422C99.0547 20.9766 98.9271 20.7448 98.7656 20.5469C98.6042 20.3438 98.4036 20.1875 98.1641 20.0781C97.9297 19.9635 97.651 19.9062 97.3281 19.9062C96.9844 19.9062 96.6927 19.9792 96.4531 20.125C96.2135 20.2708 96.0156 20.4714 95.8594 20.7266C95.7083 20.9818 95.5964 21.2786 95.5234 21.6172C95.4505 21.9557 95.4141 22.3177 95.4141 22.7031ZM107.367 27.1562C106.742 27.1562 106.177 27.0547 105.672 26.8516C105.172 26.6432 104.745 26.3542 104.391 25.9844C104.042 25.6146 103.773 25.1797 103.586 24.6797C103.398 24.1797 103.305 23.6406 103.305 23.0625V22.75C103.305 22.0885 103.401 21.4896 103.594 20.9531C103.786 20.4167 104.055 19.9583 104.398 19.5781C104.742 19.1927 105.148 18.8984 105.617 18.6953C106.086 18.4922 106.594 18.3906 107.141 18.3906C107.745 18.3906 108.273 18.4922 108.727 18.6953C109.18 18.8984 109.555 19.1849 109.852 19.5547C110.154 19.9193 110.378 20.3542 110.523 20.8594C110.674 21.3646 110.75 21.9219 110.75 22.5312V23.3359H104.219V21.9844H108.891V21.8359C108.88 21.4974 108.812 21.1797 108.688 20.8828C108.568 20.5859 108.383 20.3464 108.133 20.1641C107.883 19.9818 107.549 19.8906 107.133 19.8906C106.82 19.8906 106.542 19.9583 106.297 20.0938C106.057 20.224 105.857 20.4141 105.695 20.6641C105.534 20.9141 105.409 21.2161 105.32 21.5703C105.237 21.9193 105.195 22.3125 105.195 22.75V23.0625C105.195 23.4323 105.245 23.776 105.344 24.0938C105.448 24.4062 105.599 24.6797 105.797 24.9141C105.995 25.1484 106.234 25.3333 106.516 25.4688C106.797 25.599 107.117 25.6641 107.477 25.6641C107.93 25.6641 108.333 25.5729 108.688 25.3906C109.042 25.2083 109.349 24.9505 109.609 24.6172L110.602 25.5781C110.419 25.8438 110.182 26.099 109.891 26.3438C109.599 26.5833 109.242 26.7786 108.82 26.9297C108.404 27.0807 107.919 27.1562 107.367 27.1562ZM114.859 20.1562V27H112.977V18.5469H114.773L114.859 20.1562ZM117.445 18.4922L117.43 20.2422C117.315 20.2214 117.19 20.2057 117.055 20.1953C116.924 20.1849 116.794 20.1797 116.664 20.1797C116.341 20.1797 116.057 20.2266 115.812 20.3203C115.568 20.4089 115.362 20.5391 115.195 20.7109C115.034 20.8776 114.909 21.0807 114.82 21.3203C114.732 21.5599 114.68 21.8281 114.664 22.125L114.234 22.1562C114.234 21.625 114.286 21.1328 114.391 20.6797C114.495 20.2266 114.651 19.8281 114.859 19.4844C115.073 19.1406 115.339 18.8724 115.656 18.6797C115.979 18.487 116.352 18.3906 116.773 18.3906C116.888 18.3906 117.01 18.401 117.141 18.4219C117.276 18.4427 117.378 18.4661 117.445 18.4922Z" fill="#96E588"/>
</g>
<defs>
<filter id="filter0_d_2601_447" x="0" y="0" width="161" height="52" filterUnits="userSpaceOnUse" color-interpolation-filters="sRGB">
<feFlood flood-opacity="0" result="BackgroundImageFix"/>
<feColorMatrix in="SourceAlpha" type="matrix" values="0 0 0 0 0 0 0 0 0 0 0 0 0 0 0 0 0 0 127 0" result="hardAlpha"/>
<feOffset dx="4" dy="4"/>
<feGaussianBlur stdDeviation="2"/>
<feComposite in2="hardAlpha" operator="out"/>
<feColorMatrix type="matrix" values="0 0 0 0 0 0 0 0 0 0 0 0 0 0 0 0 0 0 0.1 0"/>
<feBlend mode="normal" in2="BackgroundImageFix" result="effect1_dropShadow_2601_447"/>
<feBlend mode="normal" in="SourceGraphic" in2="effect1_dropShadow_2601_447" result="shape"/>
</filter>
</defs>
</svg>
