<svg width="26" height="22" viewBox="0 0 26 22" fill="none" xmlns="http://www.w3.org/2000/svg">
<path d="M21.328 10.407L21.319 10.3926L17.3743 4.7334C16.6174 3.648 15.3754 3 14.0524 3H9.7C8.0278 3 6.505 4.0503 5.9128 5.6145L3.9958 10.6707C3.0985 11.2269 2.5 12.2196 2.5 13.35V15.6C2.5 16.5927 3.3073 17.4 4.3 17.4V18.3C4.3 19.7886 5.5114 21 7 21C8.4886 21 9.7 19.7886 9.7 18.3V17.4H16.9V18.3C16.9 19.7886 18.1114 21 19.6 21C21.0886 21 22.3 19.7886 22.3 18.3V17.4C23.2927 17.4 24.1 16.5927 24.1 15.6V14.25C24.1 12.4635 22.9372 10.9434 21.328 10.407ZM16.6363 5.2491L20.0878 10.2009H12.4V3.9H14.0524C15.082 3.9 16.0477 4.404 16.6363 5.2491ZM6.7552 5.934C7.216 4.7172 8.3995 3.9009 9.7 3.9009H11.5V10.2009H5.65C5.4691 10.2009 5.2927 10.2162 5.1199 10.2459L6.7552 5.934ZM8.8 18.3009C8.8 19.2936 7.9927 20.1009 7 20.1009C6.0073 20.1009 5.2 19.2936 5.2 18.3009V17.4009H8.8V18.3009ZM21.4 18.3009C21.4 19.2936 20.5927 20.1009 19.6 20.1009C18.6073 20.1009 17.8 19.2936 17.8 18.3009V17.4009H21.4V18.3009ZM23.2 15.6009C23.2 16.0968 22.7968 16.5009 22.3 16.5009H4.3C3.8032 16.5009 3.4 16.0968 3.4 15.6009V13.3509C3.4 12.1107 4.4089 11.1009 5.65 11.1009H20.05C21.787 11.1009 23.2 12.5139 23.2 14.2509V15.6009Z" fill="#A5A6A6"/>
<path d="M21.328 10.407L21.319 10.3926L17.3743 4.7334C16.6174 3.648 15.3754 3 14.0524 3H9.7C8.0278 3 6.505 4.0503 5.9128 5.6145L3.9958 10.6707C3.0985 11.2269 2.5 12.2196 2.5 13.35V15.6C2.5 16.5927 3.3073 17.4 4.3 17.4V18.3C4.3 19.7886 5.5114 21 7 21C8.4886 21 9.7 19.7886 9.7 18.3V17.4H16.9V18.3C16.9 19.7886 18.1114 21 19.6 21C21.0886 21 22.3 19.7886 22.3 18.3V17.4C23.2927 17.4 24.1 16.5927 24.1 15.6V14.25C24.1 12.4635 22.9372 10.9434 21.328 10.407ZM16.6363 5.2491L20.0878 10.2009H12.4V3.9H14.0524C15.082 3.9 16.0477 4.404 16.6363 5.2491ZM6.7552 5.934C7.216 4.7172 8.3995 3.9009 9.7 3.9009H11.5V10.2009H5.65C5.4691 10.2009 5.2927 10.2162 5.1199 10.2459L6.7552 5.934ZM8.8 18.3009C8.8 19.2936 7.9927 20.1009 7 20.1009C6.0073 20.1009 5.2 19.2936 5.2 18.3009V17.4009H8.8V18.3009ZM21.4 18.3009C21.4 19.2936 20.5927 20.1009 19.6 20.1009C18.6073 20.1009 17.8 19.2936 17.8 18.3009V17.4009H21.4V18.3009ZM23.2 15.6009C23.2 16.0968 22.7968 16.5009 22.3 16.5009H4.3C3.8032 16.5009 3.4 16.0968 3.4 15.6009V13.3509C3.4 12.1107 4.4089 11.1009 5.65 11.1009H20.05C21.787 11.1009 23.2 12.5139 23.2 14.2509V15.6009Z" stroke="#A5A6A6"/>
</svg>
