<svg width="24" height="24" viewBox="0 0 24 24" fill="none" xmlns="http://www.w3.org/2000/svg">
<path d="M18.8911 5.703H20.5544C20.649 5.703 20.7396 5.66545 20.8065 5.5986C20.8733 5.53176 20.9109 5.4411 20.9109 5.34657C20.9109 5.25203 20.8733 5.16137 20.8065 5.09453C20.7396 5.02768 20.649 4.99013 20.5544 4.99013H18.1782C18.0837 4.99013 17.993 5.02768 17.9262 5.09453C17.8593 5.16137 17.8218 5.25203 17.8218 5.34657V7.7228C17.8218 7.81734 17.8593 7.908 17.9262 7.97484C17.993 8.04169 18.0837 8.07924 18.1782 8.07924C18.2727 8.07924 18.3634 8.04169 18.4302 7.97484C18.4971 7.908 18.5346 7.81734 18.5346 7.7228V6.37072C19.9215 7.96372 20.6816 10.0068 20.6733 12.1188C20.6733 13.8578 20.1576 15.5576 19.1915 17.0035C18.2254 18.4493 16.8523 19.5762 15.2458 20.2417C13.6392 20.9071 11.8714 21.0812 10.1659 20.742C8.46043 20.4027 6.89383 19.5654 5.66424 18.3358C4.43464 17.1062 3.59728 15.5396 3.25803 13.8341C2.91879 12.1286 3.0929 10.3608 3.75835 8.75426C4.42381 7.14772 5.55071 5.77458 6.99656 4.8085C8.44241 3.84241 10.1423 3.32676 11.8812 3.32676C11.9757 3.32676 12.0664 3.28921 12.1332 3.22237C12.2001 3.15552 12.2376 3.06486 12.2376 2.97033C12.2376 2.87579 12.2001 2.78513 12.1332 2.71829C12.0664 2.65144 11.9757 2.61389 11.8812 2.61389C10.0013 2.61389 8.16359 3.17135 6.60051 4.21576C5.03743 5.26018 3.81915 6.74465 3.09975 8.48145C2.38034 10.2183 2.19211 12.1294 2.55886 13.9732C2.92561 15.8169 3.83087 17.5106 5.16016 18.8399C6.48945 20.1691 8.18307 21.0744 10.0269 21.4412C11.8706 21.8079 13.7818 21.6197 15.5186 20.9003C17.2554 20.1809 18.7398 18.9626 19.7843 17.3995C20.8287 15.8364 21.3861 13.9987 21.3861 12.1188C21.3949 9.74181 20.5035 7.44959 18.8911 5.703Z" fill="#4B40E6" stroke="#4B40E6" stroke-width="0.5"/>
<path d="M5.46533 12.2377C5.46533 13.5301 5.84858 14.7935 6.56662 15.8681C7.28466 16.9427 8.30523 17.7803 9.49928 18.2749C10.6933 18.7695 12.0072 18.8989 13.2748 18.6467C14.5424 18.3946 15.7068 17.7722 16.6207 16.8584C17.5346 15.9445 18.1569 14.7801 18.4091 13.5125C18.6612 12.2449 18.5318 10.931 18.0372 9.73695C17.5426 8.5429 16.7051 7.52233 15.6304 6.80429C14.5558 6.08625 13.2924 5.703 12 5.703C10.2675 5.70489 8.60645 6.39397 7.38137 7.61904C6.1563 8.84412 5.46722 10.5051 5.46533 12.2377ZM17.8218 12.2377C17.8218 13.3891 17.4803 14.5147 16.8406 15.4721C16.2009 16.4295 15.2917 17.1756 14.2279 17.6163C13.1641 18.0569 11.9935 18.1722 10.8642 17.9476C9.7349 17.7229 8.69755 17.1685 7.88336 16.3543C7.06917 15.5401 6.5147 14.5027 6.29007 13.3734C6.06543 12.2441 6.18072 11.0735 6.62136 10.0098C7.062 8.94597 7.80819 8.03673 8.76558 7.39702C9.72296 6.75732 10.8485 6.41587 12 6.41587C13.5434 6.41776 15.0231 7.03173 16.1145 8.12312C17.2059 9.21451 17.8199 10.6942 17.8218 12.2377Z" fill="#4B40E6" stroke="#4B40E6" stroke-width="0.5"/>
<path d="M11.6436 8.19799V12.2376C11.6436 12.308 11.6646 12.3769 11.7037 12.4355C11.7429 12.494 11.7985 12.5396 11.8636 12.5666C11.9287 12.5936 12.0003 12.6006 12.0694 12.5869C12.1385 12.5732 12.202 12.5393 12.2519 12.4895L15.341 9.40036C15.4039 9.3328 15.4382 9.24343 15.4366 9.15109C15.435 9.05875 15.3976 8.97064 15.3322 8.90534C15.2669 8.84003 15.1788 8.80262 15.0865 8.80099C14.9942 8.79937 14.9048 8.83364 14.8372 8.8966L12.3564 11.3774V8.19799C12.3564 8.10346 12.3189 8.01279 12.252 7.94595C12.1852 7.87911 12.0945 7.84155 12 7.84155C11.9055 7.84155 11.8148 7.87911 11.748 7.94595C11.6811 8.01279 11.6436 8.10346 11.6436 8.19799Z" fill="#4B40E6" stroke="#4B40E6" stroke-width="0.5"/>
</svg>
