<svg width="24" height="24" viewBox="0 0 24 24" fill="none" xmlns="http://www.w3.org/2000/svg">
<path d="M19.5236 8.04052V4.1749C19.5236 3.97668 19.363 3.8158 19.1645 3.8158H12.4337V2.08469C12.4337 1.88646 12.2731 1.72559 12.0746 1.72559C11.8762 1.72559 11.7155 1.88646 11.7155 2.08469V3.8158H4.77768C4.57922 3.8158 4.41858 3.97668 4.41858 4.1749V8.03286C4.40398 8.07667 4.39703 8.12335 4.40015 8.17027L5.24858 20.9213C5.26103 21.1099 5.41784 21.2564 5.60697 21.2564H18.3336C18.5227 21.2564 18.6792 21.1099 18.6919 20.9213L19.5404 8.17027C19.543 8.12599 19.5365 8.08218 19.5236 8.04052ZM18.8054 4.53401V7.78747H5.13678V4.53401H18.8054ZM17.9974 20.5385H5.94285L5.14229 8.50568H18.7982L17.9974 20.5385Z" fill="#E40000" stroke="#E40000" stroke-width="0.5"/>
<path d="M12.0749 17.9122C12.2734 17.9122 12.434 17.7513 12.434 17.5531V11.4909C12.434 11.2927 12.2734 11.1318 12.0749 11.1318C11.8765 11.1318 11.7158 11.2927 11.7158 11.4909V17.5531C11.7158 17.7513 11.8767 17.9122 12.0749 17.9122Z" fill="#E40000" stroke="#E40000" stroke-width="0.5"/>
<path d="M15.4714 17.9122C15.6699 17.9122 15.8305 17.7513 15.8305 17.5531V11.4909C15.8305 11.2927 15.6699 11.1318 15.4714 11.1318C15.2729 11.1318 15.1123 11.2927 15.1123 11.4909V17.5531C15.1123 17.7513 15.2729 17.9122 15.4714 17.9122Z" fill="#E40000" stroke="#E40000" stroke-width="0.5"/>
<path d="M8.80808 17.9125C8.81239 17.9125 8.81646 17.9125 8.82077 17.9123C9.01899 17.9056 9.17412 17.7392 9.16718 17.541L8.95818 11.4788C8.95148 11.2806 8.78246 11.1209 8.58687 11.1324C8.38865 11.1391 8.23352 11.3055 8.24046 11.5037L8.44946 17.5659C8.45616 17.76 8.6156 17.9125 8.80808 17.9125Z" fill="#E40000" stroke="#E40000" stroke-width="0.5"/>
</svg>
