<svg width="24" height="24" viewBox="0 0 24 24" fill="none" xmlns="http://www.w3.org/2000/svg">
<g clip-path="url(#clip0_2823_6176)">
<path d="M17.6832 1.17146C17.5349 1.03922 17.3076 1.05194 17.1749 1.20026L11.946 7.05698L9.25417 4.36514C9.11353 4.2245 8.88577 4.2245 8.74513 4.36514C8.60449 4.50578 8.60449 4.73354 8.74513 4.87418L11.7065 7.8353C11.7742 7.90298 11.8656 7.94066 11.9611 7.94066C11.9645 7.94066 11.9678 7.94066 11.9712 7.94042C12.0701 7.93754 12.1637 7.89434 12.2297 7.82042L17.7122 1.67954C17.8445 1.53146 17.8315 1.3037 17.6832 1.17146Z" fill="black" stroke="black" stroke-width="0.5"/>
<path d="M21.9974 8.70805C22.0009 8.67544 22.0009 8.64251 21.9974 8.60989V8.58969C21.9904 8.56481 21.9813 8.54066 21.9702 8.51751L21.9566 8.49153C21.9446 8.47109 21.9309 8.45178 21.9158 8.43379L21.8995 8.41358C21.8775 8.38943 21.8528 8.36812 21.8261 8.35007L18.3549 6.06646C18.263 6.00521 18.152 5.98524 18.0462 6.01096C17.9404 6.03668 17.8486 6.10597 17.7909 6.20359C17.7332 6.30122 17.7144 6.41917 17.7386 6.53152C17.7629 6.64386 17.8281 6.74139 17.92 6.80264L20.7497 8.66763L9.96646 14.3954L4.10595 8.82064L6.90301 7.40891C7.00069 7.35952 7.07591 7.27094 7.1121 7.16266C7.14829 7.05438 7.1425 6.93526 7.096 6.83151C7.04951 6.72776 6.96611 6.64788 6.86415 6.60944C6.7622 6.571 6.65004 6.57715 6.55236 6.62654L3.20349 8.31831C3.17421 8.33398 3.14683 8.35337 3.12194 8.37605L3.10292 8.39337C3.08159 8.41422 3.06246 8.43745 3.04583 8.46266V8.47998C3.02752 8.51063 3.01291 8.54361 3.00234 8.57814V8.60123C2.99922 8.63194 2.99922 8.66291 3.00234 8.69362C3.00234 8.69362 3.00234 8.69362 3.00234 8.70805V17.4267C3.00211 17.4899 3.01489 17.5523 3.03977 17.6097C3.06466 17.667 3.10105 17.7179 3.14641 17.7588L9.67018 23.908C9.70295 23.936 9.73963 23.9584 9.7789 23.9744H9.79521C9.83634 23.9894 9.87949 23.9972 9.92297 23.9975C9.95188 24.0008 9.98104 24.0008 10.01 23.9975H10.029L10.0915 23.9744L21.7799 17.8252C21.8478 17.7872 21.9042 17.7297 21.9426 17.6592C21.9811 17.5887 22.0001 17.5082 21.9974 17.4267V8.70805ZM3.78519 9.67808L9.49349 15.1085V22.6435L3.78519 17.2247V9.67808ZM21.1819 17.1525L10.309 22.8918V15.1836L21.1819 9.40959V17.1525Z" fill="black" stroke="black" stroke-width="0.3"/>
</g>
<defs>
<clipPath id="clip0_2823_6176">
<rect width="24" height="24" fill="white"/>
</clipPath>
</defs>
</svg>
