<svg width="25" height="24" viewBox="0 0 25 24" fill="none" xmlns="http://www.w3.org/2000/svg">
<path d="M19.3908 5.70288H21.0542C21.1487 5.70288 21.2394 5.66533 21.3062 5.59848C21.3731 5.53164 21.4106 5.44098 21.4106 5.34644C21.4106 5.25191 21.3731 5.16125 21.3062 5.0944C21.2394 5.02756 21.1487 4.99001 21.0542 4.99001H18.678C18.5834 4.99001 18.4928 5.02756 18.4259 5.0944C18.3591 5.16125 18.3215 5.25191 18.3215 5.34644V7.72268C18.3215 7.81721 18.3591 7.90787 18.4259 7.97472C18.4928 8.04156 18.5834 8.07912 18.678 8.07912C18.7725 8.07912 18.8632 8.04156 18.93 7.97472C18.9968 7.90787 19.0344 7.81721 19.0344 7.72268V6.3706C20.4212 7.9636 21.1814 10.0066 21.173 12.1187C21.173 13.8576 20.6574 15.5575 19.6913 17.0033C18.7252 18.4492 17.3521 19.5761 15.7455 20.2415C14.139 20.907 12.3712 21.0811 10.6657 20.7419C8.96019 20.4026 7.39359 19.5653 6.16399 18.3357C4.9344 17.1061 4.09703 15.5395 3.75779 13.834C3.41855 12.1285 3.59266 10.3607 4.25811 8.75414C4.92356 7.14759 6.05046 5.77446 7.49631 4.80837C8.94216 3.84229 10.642 3.32664 12.3809 3.32664C12.4755 3.32664 12.5661 3.28909 12.633 3.22224C12.6998 3.1554 12.7374 3.06474 12.7374 2.97021C12.7374 2.87567 12.6998 2.78501 12.633 2.71817C12.5661 2.65132 12.4755 2.61377 12.3809 2.61377C10.501 2.61377 8.66334 3.17122 7.10026 4.21564C5.53718 5.26006 4.31891 6.74453 3.5995 8.48133C2.88009 10.2181 2.69187 12.1293 3.05862 13.973C3.42537 15.8168 4.33063 17.5104 5.65992 18.8397C6.98921 20.169 8.68283 21.0743 10.5266 21.441C12.3704 21.8078 14.2815 21.6196 16.0183 20.9002C17.7551 20.1807 19.2396 18.9625 20.284 17.3994C21.3284 15.8363 21.8859 13.9986 21.8859 12.1187C21.8946 9.74169 21.0032 7.44947 19.3908 5.70288Z" fill="#676767" stroke="#676767" stroke-width="0.5"/>
<path d="M5.96582 12.2375C5.96582 13.53 6.34907 14.7934 7.06711 15.868C7.78515 16.9426 8.80572 17.7802 9.99977 18.2748C11.1938 18.7694 12.5077 18.8988 13.7753 18.6466C15.0429 18.3945 16.2073 17.7721 17.1212 16.8582C18.0351 15.9443 18.6574 14.78 18.9096 13.5124C19.1617 12.2448 19.0323 10.9309 18.5377 9.73683C18.0431 8.54278 17.2056 7.52221 16.1309 6.80417C15.0563 6.08613 13.7929 5.70288 12.5005 5.70288C10.768 5.70477 9.10694 6.39384 7.88186 7.61892C6.65678 8.844 5.96771 10.505 5.96582 12.2375ZM18.3223 12.2375C18.3223 13.389 17.9808 14.5146 17.3411 15.4719C16.7014 16.4293 15.7922 17.1755 14.7284 17.6162C13.6646 18.0568 12.494 18.1721 11.3647 17.9475C10.2354 17.7228 9.19804 17.1683 8.38385 16.3542C7.56966 15.54 7.01519 14.5026 6.79056 13.3733C6.56592 12.244 6.68121 11.0734 7.12185 10.0096C7.56249 8.94584 8.30868 8.0366 9.26607 7.3969C10.2235 6.75719 11.349 6.41575 12.5005 6.41575C14.0439 6.41764 15.5236 7.03161 16.615 8.123C17.7064 9.21438 18.3204 10.6941 18.3223 12.2375Z" fill="#676767" stroke="#676767" stroke-width="0.5"/>
<path d="M12.1436 8.19799V12.2376C12.1436 12.308 12.1646 12.3769 12.2037 12.4355C12.2429 12.494 12.2985 12.5396 12.3636 12.5666C12.4287 12.5936 12.5003 12.6006 12.5694 12.5869C12.6385 12.5732 12.702 12.5393 12.7519 12.4895L15.841 9.40036C15.9039 9.3328 15.9382 9.24343 15.9366 9.15109C15.935 9.05875 15.8976 8.97064 15.8322 8.90534C15.7669 8.84003 15.6788 8.80262 15.5865 8.80099C15.4942 8.79937 15.4048 8.83364 15.3372 8.8966L12.8564 11.3774V8.19799C12.8564 8.10346 12.8189 8.01279 12.752 7.94595C12.6852 7.87911 12.5945 7.84155 12.5 7.84155C12.4055 7.84155 12.3148 7.87911 12.248 7.94595C12.1811 8.01279 12.1436 8.10346 12.1436 8.19799Z" fill="#676767" stroke="#676767" stroke-width="0.5"/>
</svg>
