<svg width="17" height="22" viewBox="0 0 17 22" fill="none" xmlns="http://www.w3.org/2000/svg">
<path d="M13.9649 13.3078C14.1582 13.4123 14.235 13.6518 14.1365 13.8497L14.1364 13.8498C14.0352 14.0523 13.7888 14.1332 13.5885 14.0327L13.9649 13.3078ZM13.9649 13.3078L13.9638 13.3067L13.9529 13.3012L11.6203 12.1346L11.6203 12.1346C11.4687 12.0588 11.341 11.9429 11.2502 11.8003C11.2501 11.8002 11.2501 11.8002 11.2501 11.8001L9.81626 9.5291L9.81704 9.52861L9.80929 9.51976C9.47841 9.14151 9.00119 8.92483 8.4989 8.92483H7.5496C6.79932 8.92483 6.04854 9.10221 5.37751 9.43738L5.37747 9.4374L3.97154 10.1407C3.97154 10.1407 3.97153 10.1407 3.97153 10.1407C3.50905 10.372 3.17526 10.7928 3.05614 11.2958L2.43618 13.9056L13.9649 13.3078ZM6.35113 9.92475L5.48011 13.546L6.35113 9.92475ZM6.35113 9.92475C6.14225 9.98938 5.9386 10.0708 5.74323 10.1682C5.7432 10.1682 5.74317 10.1682 5.74315 10.1682L4.33735 10.8715C4.09113 10.9949 3.91425 11.218 3.85073 11.4851C3.85073 11.4851 3.85073 11.4851 3.85072 11.4851L3.23076 14.095L3.23071 14.0951C3.1858 14.2821 3.01848 14.4086 2.8338 14.4086C2.80196 14.4086 2.77026 14.4044 2.73961 14.3974L2.73937 14.3973L6.35113 9.92475ZM11.2559 12.8661L13.5884 14.0327L5.4801 13.5461C5.29896 14.2965 5.64088 15.0876 6.31259 15.4694L6.31261 15.4694L8.95715 16.9714C9.24567 17.1354 9.42519 17.4438 9.42519 17.7761V20.6667C9.42519 20.8921 9.60809 21.075 9.83351 21.075C10.0589 21.075 10.2418 20.8921 10.2418 20.6667V17.7761C10.2418 17.1512 9.9047 16.571 9.3606 16.2617L9.36056 16.2616L8.39159 15.7116L9.68574 10.8461L10.5607 12.2363L10.5607 12.2364C10.7307 12.506 10.971 12.7233 11.2558 12.8661L11.2559 12.8661ZM6.27321 13.738L6.27325 13.7378L7.22928 9.75512C7.336 9.74647 7.44313 9.74214 7.55027 9.74214H8.49956C8.72757 9.74214 8.94519 9.82648 9.09389 9.9495L7.68452 15.3102L6.71536 14.7597C6.35843 14.5569 6.17646 14.1367 6.27321 13.738ZM6.47964 16.7994L6.5036 16.7058H6.49189C6.49573 16.5211 6.37263 16.3508 6.18541 16.303C5.96752 16.2457 5.74383 16.3783 5.68831 16.5971L5.68827 16.5973L5.37805 17.8335L4.12985 20.4935L4.12981 20.4936C4.03437 20.6975 4.12154 20.9409 4.32594 21.0366L4.32618 21.0367C4.38227 21.0627 4.44106 21.075 4.49906 21.075C4.65251 21.075 4.79952 20.9877 4.86894 20.8399L4.86901 20.8397L6.14162 18.1145L6.14282 18.1151L6.14632 18.1014L6.47964 16.7994ZM8.4989 8.40819C9.45963 8.40819 10.2405 7.62663 10.2405 6.6666C10.2405 5.70657 9.45963 4.925 8.4989 4.925C7.53816 4.925 6.7573 5.70657 6.7573 6.6666C6.7573 7.62665 7.53885 8.40819 8.4989 8.40819ZM8.4989 5.74164C9.00879 5.74164 9.42386 6.15671 9.42386 6.6666C9.42386 7.17649 9.00879 7.59156 8.4989 7.59156C7.98901 7.59156 7.57394 7.17649 7.57394 6.6666C7.57394 6.15671 7.98901 5.74164 8.4989 5.74164Z" fill="#A5A6A6" stroke="#A5A6A6" stroke-width="0.15"/>
</svg>
