<svg width="28" height="28" viewBox="0 0 28 28" fill="none" xmlns="http://www.w3.org/2000/svg">
<path d="M22.4418 5C20.4249 5 18.6905 6.23392 17.9545 7.98664C17.2181 6.23392 15.4829 5 13.465 5C10.7823 5 8.59949 7.18204 8.59949 9.86428C8.59949 10.8994 8.93379 11.8973 9.57476 12.7612L17.6602 22.8587C17.7318 22.948 17.8399 23 17.9545 23C18.0691 23 18.1777 22.9477 18.2491 22.8582L26.5095 12.5063C26.5173 12.4963 26.5251 12.4857 26.5321 12.4749C27.0406 11.6826 27.3096 10.7797 27.3096 9.86428C27.3098 7.18204 25.1258 5 22.4418 5ZM25.908 12.0516L17.954 22.0195L10.1717 12.3009C9.63634 11.5788 9.35331 10.7362 9.35331 9.86428C9.35331 7.59779 11.1978 5.75407 13.4648 5.75407C15.7325 5.75407 17.5775 7.59779 17.5775 9.86428C17.5775 10.0727 17.7462 10.2413 17.9545 10.2413C18.1629 10.2413 18.3316 10.0727 18.3316 9.86428C18.3316 7.59779 20.1753 5.75407 22.4418 5.75407C24.71 5.75407 26.5558 7.59779 26.5558 9.86428C26.5558 10.6292 26.3318 11.385 25.908 12.0516Z" fill="#676767" stroke="#676767" stroke-width="0.5"/>
</svg>
