<svg width="28" height="28" viewBox="0 0 28 28" fill="none" xmlns="http://www.w3.org/2000/svg">
<path d="M17.9545 7.41239C17.0847 5.82746 15.3988 4.75 13.465 4.75C10.6443 4.75 8.34949 7.0439 8.34949 9.86428C8.34949 10.9548 8.70215 12.0046 9.37398 12.9101L9.37384 12.9102L9.37961 12.9174L17.465 23.015L17.4652 23.0152C17.5842 23.1634 17.7639 23.25 17.9545 23.25C18.1452 23.25 18.3257 23.1631 18.4446 23.0141L26.7049 12.6622L26.7049 12.6623L26.7071 12.6594C26.7171 12.6465 26.7294 12.63 26.7416 12.6113L26.7425 12.6099C27.2761 11.7786 27.5596 10.829 27.5596 9.8643C27.5598 7.04378 25.2636 4.75 22.4418 4.75C20.5089 4.75 18.8237 5.82749 17.9545 7.41239Z" fill="#4B40E6" stroke="#4B40E6" stroke-width="0.5"/>
</svg>
