<svg width="26" height="24" viewBox="0 0 26 24" fill="none" xmlns="http://www.w3.org/2000/svg">
<path d="M17.1753 3C15.1584 3 13.424 4.23392 12.6881 5.98664C11.9516 4.23392 10.2164 3 8.19855 3C5.5158 3 3.33301 5.18204 3.33301 7.86428C3.33301 8.89937 3.66731 9.89726 4.30828 10.7612L12.3937 20.8587C12.4653 20.948 12.5734 21 12.6881 21C12.8027 21 12.9113 20.9477 12.9826 20.8582L21.243 10.5063C21.2508 10.4963 21.2586 10.4857 21.2656 10.4749C21.7741 9.6826 22.0431 8.77973 22.0431 7.86428C22.0433 5.18204 19.8593 3 17.1753 3ZM20.6415 10.0516L12.6875 20.0195L4.90525 10.3009C4.36986 9.57879 4.08683 8.73624 4.08683 7.86428C4.08683 5.59779 5.9313 3.75407 8.19829 3.75407C10.466 3.75407 12.311 5.59779 12.311 7.86428C12.311 8.07266 12.4797 8.24132 12.6881 8.24132C12.8964 8.24132 13.0651 8.07266 13.0651 7.86428C13.0651 5.59779 14.9088 3.75407 17.1753 3.75407C19.4436 3.75407 21.2893 5.59779 21.2893 7.86428C21.2893 8.62916 21.0653 9.385 20.6415 10.0516Z" fill="#676767" stroke="#676767" stroke-width="0.5"/>
</svg>
