<svg width="32" height="32" viewBox="0 0 32 32" fill="none" xmlns="http://www.w3.org/2000/svg">
<g clip-path="url(#clip0_3934_22515)">
<rect width="32" height="32" rx="16" fill="white"/>
<path d="M17.7109 13.5328V13.4951C17.7031 13.5074 17.693 13.5208 17.6855 13.5328H17.7109Z" fill="#334CDB"/>
<path d="M16 0C7.16353 0 0 7.16353 0 16C0 24.8365 7.16353 32 16 32C24.8365 32 32 24.8365 32 16C32 7.16353 24.8365 0 16 0ZM11.7158 23.4601H7.85626V11.8494H11.7158V23.4601ZM9.78618 10.2651H9.76022C8.46561 10.2651 7.62654 9.37249 7.62654 8.25795C7.62654 7.11875 8.49059 6.25211 9.81149 6.25211C11.1324 6.25211 11.9445 7.11843 11.9698 8.25795C11.9698 9.37281 11.1327 10.2651 9.78618 10.2651ZM25.635 23.4601H21.7751V17.2482C21.7751 15.6879 21.2167 14.623 19.8199 14.623C18.7534 14.623 18.1188 15.3407 17.8394 16.035C17.7375 16.2833 17.7112 16.6288 17.7112 16.976V23.4601H13.8501C13.8501 23.4601 13.902 12.9393 13.8501 11.8494H17.7106V13.4951C18.2236 12.7051 19.1395 11.5766 21.1898 11.5766C23.73 11.5766 25.6343 13.2359 25.6343 16.8024V23.4601H25.635Z" fill="#334CDB"/>
</g>
<defs>
<clipPath id="clip0_3934_22515">
<rect width="32" height="32" rx="16" fill="white"/>
</clipPath>
</defs>
</svg>
