<svg width="24" height="24" viewBox="0 0 24 24" fill="none" xmlns="http://www.w3.org/2000/svg">
<path d="M19.0692 18.1742V17.6783C19.0692 16.7214 18.404 16.0735 17.8172 15.5018C17.7439 15.4304 17.6709 15.3593 17.5996 15.288C16.5484 13.9593 16.498 12.1279 16.4422 11.735C16.3865 11.3422 16.3214 10.6337 15.2805 10.5114V10.4585C15.2805 10.132 15.1001 9.75854 14.7854 9.43403C14.531 9.17165 14.2697 8.91791 14.2586 8.90727C14.108 8.76112 13.8675 8.76477 13.7213 8.91544C13.5752 9.06606 13.5788 9.30664 13.7295 9.45274C13.7321 9.45531 13.9937 9.70928 14.2398 9.96307C14.4618 10.1921 14.5205 10.3873 14.5205 10.4585V18.1018C14.5205 18.7326 14.0073 19.2457 13.3765 19.2457C13.3486 19.2457 13.3214 19.2487 13.2951 19.2545H10.5655V17.3181C10.5655 16.9226 10.4136 16.562 10.1651 16.2913C10.4098 16.0843 10.5655 15.7754 10.5655 15.4306V15.0335C10.5655 14.4119 10.0597 13.9061 9.43803 13.9061H3.12747C2.50576 13.9061 2 14.4119 2 15.0336V15.4307C2 16.0523 2.50576 16.5581 3.12747 16.5581H3.69864C3.51853 16.6687 3.34478 16.7903 3.17901 16.9232C3.02934 17.0431 2.57392 17.408 2.57392 18.185V19.978C2.57392 20.6422 2.99552 21.2087 3.58308 21.4206C3.80452 22.7754 4.98523 23.8 6.3853 23.8C7.75221 23.8 8.91317 22.8192 9.17133 21.5099H15.7312C15.9881 22.8136 17.1392 23.8 18.5168 23.8C20.083 23.8 21.3571 22.5259 21.3571 20.9598C21.3571 19.5828 20.3717 18.432 19.0692 18.1742ZM3.12747 15.7982C2.92484 15.7982 2.75998 15.6333 2.75998 15.4307V15.0336C2.75998 14.831 2.92484 14.6661 3.12747 14.6661H9.43808C9.64071 14.6661 9.80557 14.831 9.80557 15.0336V15.4307C9.80557 15.6333 9.64071 15.7982 9.43808 15.7982H3.12747ZM3.3339 18.185C3.3339 17.8228 3.48789 17.6496 3.65428 17.5162C4.70392 16.4516 4.85775 16.5581 6.38502 16.5581H9.04564C9.46468 16.5581 9.80562 16.8991 9.80562 17.3181V19.6257C9.80562 19.8277 9.96355 19.9943 10.1652 20.0052L10.3275 20.0139C10.3343 20.0143 10.3411 20.0145 10.3479 20.0145H13.3767C13.4079 20.0145 13.4383 20.0107 13.4673 20.0036C14.4752 19.9561 15.2806 19.1213 15.2806 18.1018V11.2784C15.6819 11.3533 15.5855 11.4206 15.6824 11.735C15.7792 12.0495 15.8542 14.6171 17.0622 15.8254C17.1359 15.8991 17.2113 15.9725 17.287 16.0462C17.8127 16.5583 18.3093 17.0421 18.3093 17.6783V18.1283C16.9096 18.23 15.7887 19.3503 15.6859 20.7499H4.09388C3.68192 20.7499 3.3339 20.3964 3.3339 19.978V18.185ZM6.3853 23.04C5.43443 23.04 4.62201 22.3948 4.37963 21.5099H4.77144H7.99982H8.39169C8.14887 22.3942 7.3348 23.04 6.3853 23.04ZM18.5168 23.04C17.3701 23.04 16.4373 22.1068 16.4373 20.9598C16.4373 20.5204 16.5746 20.1126 16.808 19.7764C17.0629 19.452 17.0895 19.4185 17.3473 19.241C17.6808 19.0133 18.0835 18.8799 18.5168 18.8799C19.6639 18.8799 20.5971 19.813 20.5971 20.9598C20.5971 22.1068 19.6639 23.04 18.5168 23.04Z" fill="#A5A6A6" stroke="#A5A6A6" stroke-width="0.2" stroke-linecap="round" stroke-linejoin="round"/>
</svg>
