<svg width="25" height="24" viewBox="0 0 25 24" fill="none" xmlns="http://www.w3.org/2000/svg">
<g clip-path="url(#clip0_2823_6391)">
<path d="M24.0505 11.6647L20.3032 9.58314L22.9527 7.43027C22.9975 7.39393 23.0327 7.34727 23.0555 7.2943C23.0782 7.24133 23.0878 7.18364 23.0834 7.12616C23.0789 7.06868 23.0606 7.01314 23.03 6.9643C22.9994 6.91545 22.9574 6.87476 22.9076 6.84572L15.7789 2.71106C15.7089 2.6707 15.6273 2.6553 15.5474 2.66739C15.4675 2.67948 15.3942 2.71834 15.3393 2.7776L12.6185 5.72176L9.65768 2.76572C9.60225 2.71021 9.53006 2.67454 9.4523 2.66423C9.37454 2.65392 9.29555 2.66954 9.22758 2.70869L2.09886 6.84334C2.04843 6.8726 2.00595 6.91379 1.97514 6.96329C1.94433 7.01279 1.92613 7.0691 1.92214 7.12727C1.91815 7.18544 1.9285 7.2437 1.95227 7.29694C1.97603 7.35018 2.0125 7.39678 2.05847 7.43265L4.86243 9.63542L1.41688 11.6695C1.36188 11.7021 1.31665 11.7489 1.28595 11.805C1.25525 11.8611 1.24021 11.9244 1.2424 11.9883C1.24458 12.0522 1.26392 12.1143 1.29838 12.1682C1.33285 12.2221 1.38116 12.2657 1.43827 12.2944C3.04223 13.1024 4.28975 13.7202 5.25213 14.1954V17.7194C5.25233 17.7822 5.26914 17.8439 5.30086 17.8981C5.33257 17.9524 5.37806 17.9973 5.43273 18.0283L12.3238 21.9396C12.3421 21.9492 12.3612 21.9571 12.3808 21.9633H12.407C12.4372 21.9714 12.4684 21.9753 12.4997 21.9752C12.5296 21.9791 12.56 21.9791 12.59 21.9752H12.6208C12.6388 21.9695 12.6563 21.9624 12.6731 21.9538L19.8018 18.0449C19.8591 18.0131 19.9065 17.9661 19.9387 17.9091C19.971 17.852 19.987 17.7872 19.9848 17.7218V14.376C19.9863 14.357 19.9863 14.338 19.9848 14.319C20.9852 13.8271 22.304 13.1736 24.0434 12.2968C24.1012 12.2676 24.1499 12.2231 24.1843 12.1683C24.2187 12.1134 24.2376 12.0503 24.2388 11.9855C24.24 11.9208 24.2236 11.8569 24.1912 11.8008C24.1589 11.7447 24.1119 11.6985 24.0553 11.6671L24.0505 11.6647ZM12.5567 12.7293C11.8201 12.4275 8.63589 10.8544 6.30718 9.68532L12.6185 6.62948L18.868 9.65205C16.5274 10.8307 13.2838 12.4346 12.5567 12.7293ZM15.6743 3.46196L22.0902 7.19502L19.6046 9.21483L13.1888 6.12572L15.6743 3.46196ZM2.92104 7.1974L9.34877 3.46433L12.0149 6.13285L5.54678 9.2671L2.92104 7.1974ZM5.51589 10.0845C9.24896 11.9641 10.9955 12.8029 11.8296 13.1736L8.67391 15.0342C7.96104 14.7538 4.69847 13.1332 2.34124 11.9451L5.51589 10.0845ZM5.965 14.5471C8.48857 15.7756 8.64778 15.778 8.71669 15.778C8.78026 15.7778 8.84261 15.7605 8.89728 15.7281L12.1408 13.8271V21.0176L5.965 17.5103V14.5471ZM19.2719 17.5103L12.8561 21.0295V13.6631L16.5844 15.7352C16.6375 15.7647 16.6972 15.7802 16.7579 15.7804C16.8268 15.7804 16.9741 15.7804 19.2719 14.6659V17.5103ZM16.7959 15.0366L13.3789 13.1356C14.2486 12.7412 16.0189 11.8881 19.6735 10.0465L23.1143 11.9475C20.7547 13.1451 17.4874 14.761 16.7959 15.0366Z" fill="#334CDB" stroke="#334CDB" stroke-width="0.5"/>
</g>
<defs>
<clipPath id="clip0_2823_6391">
<rect width="24" height="24" fill="white" transform="translate(0.5)"/>
</clipPath>
</defs>
</svg>
