<svg width="132" height="20" viewBox="0 0 132 20" fill="none" xmlns="http://www.w3.org/2000/svg">
<path d="M5.188 15.126C4.264 15.126 3.436 14.976 2.704 14.676C1.972 14.376 1.384 13.932 0.94 13.344C0.508 12.756 0.28 12.048 0.256 11.22H3.532C3.58 11.688 3.742 12.048 4.018 12.3C4.294 12.54 4.654 12.66 5.098 12.66C5.554 12.66 5.914 12.558 6.178 12.354C6.442 12.138 6.574 11.844 6.574 11.472C6.574 11.16 6.466 10.902 6.25 10.698C6.046 10.494 5.788 10.326 5.476 10.194C5.176 10.062 4.744 9.912 4.18 9.744C3.364 9.492 2.698 9.24 2.182 8.988C1.666 8.736 1.222 8.364 0.85 7.872C0.478 7.38 0.292 6.738 0.292 5.946C0.292 4.77 0.718 3.852 1.57 3.192C2.422 2.52 3.532 2.184 4.9 2.184C6.292 2.184 7.414 2.52 8.266 3.192C9.118 3.852 9.574 4.776 9.634 5.964H6.304C6.28 5.556 6.13 5.238 5.854 5.01C5.578 4.77 5.224 4.65 4.792 4.65C4.42 4.65 4.12 4.752 3.892 4.956C3.664 5.148 3.55 5.43 3.55 5.802C3.55 6.21 3.742 6.528 4.126 6.756C4.51 6.984 5.11 7.23 5.926 7.494C6.742 7.77 7.402 8.034 7.906 8.286C8.422 8.538 8.866 8.904 9.238 9.384C9.61 9.864 9.796 10.482 9.796 11.238C9.796 11.958 9.61 12.612 9.238 13.2C8.878 13.788 8.35 14.256 7.654 14.604C6.958 14.952 6.136 15.126 5.188 15.126ZM17.9992 4.848C19.1512 4.848 20.0752 5.232 20.7712 6C21.4672 6.756 21.8152 7.8 21.8152 9.132V15H18.7552V9.546C18.7552 8.874 18.5812 8.352 18.2332 7.98C17.8852 7.608 17.4172 7.422 16.8292 7.422C16.2412 7.422 15.7732 7.608 15.4252 7.98C15.0772 8.352 14.9032 8.874 14.9032 9.546V15H11.8252V1.68H14.9032V6.306C15.2152 5.862 15.6412 5.508 16.1812 5.244C16.7212 4.98 17.3272 4.848 17.9992 4.848ZM23.4771 9.96C23.4771 8.928 23.6691 8.022 24.0531 7.242C24.4491 6.462 24.9831 5.862 25.6551 5.442C26.3271 5.022 27.0771 4.812 27.9051 4.812C28.6131 4.812 29.2311 4.956 29.7591 5.244C30.2991 5.532 30.7131 5.91 31.0011 6.378V4.956H34.0791V15H31.0011V13.578C30.7011 14.046 30.2811 14.424 29.7411 14.712C29.2131 15 28.5951 15.144 27.8871 15.144C27.0711 15.144 26.3271 14.934 25.6551 14.514C24.9831 14.082 24.4491 13.476 24.0531 12.696C23.6691 11.904 23.4771 10.992 23.4771 9.96ZM31.0011 9.978C31.0011 9.21 30.7851 8.604 30.3531 8.16C29.9331 7.716 29.4171 7.494 28.8051 7.494C28.1931 7.494 27.6711 7.716 27.2391 8.16C26.8191 8.592 26.6091 9.192 26.6091 9.96C26.6091 10.728 26.8191 11.34 27.2391 11.796C27.6711 12.24 28.1931 12.462 28.8051 12.462C29.4171 12.462 29.9331 12.24 30.3531 11.796C30.7851 11.352 31.0011 10.746 31.0011 9.978ZM39.5189 6.63C39.8789 6.078 40.3289 5.646 40.8689 5.334C41.4089 5.01 42.0089 4.848 42.6689 4.848V8.106H41.8229C41.0549 8.106 40.4789 8.274 40.0949 8.61C39.7109 8.934 39.5189 9.51 39.5189 10.338V15H36.4409V4.956H39.5189V6.63ZM53.7431 9.816C53.7431 10.104 53.7251 10.404 53.6891 10.716H46.7231C46.7711 11.34 46.9691 11.82 47.3171 12.156C47.6771 12.48 48.1151 12.642 48.6311 12.642C49.3991 12.642 49.9331 12.318 50.2331 11.67H53.5091C53.3411 12.33 53.0351 12.924 52.5911 13.452C52.1591 13.98 51.6131 14.394 50.9531 14.694C50.2931 14.994 49.5551 15.144 48.7391 15.144C47.7551 15.144 46.8791 14.934 46.1111 14.514C45.3431 14.094 44.7431 13.494 44.3111 12.714C43.8791 11.934 43.6631 11.022 43.6631 9.978C43.6631 8.934 43.8731 8.022 44.2931 7.242C44.7251 6.462 45.3251 5.862 46.0931 5.442C46.8611 5.022 47.7431 4.812 48.7391 4.812C49.7111 4.812 50.5751 5.016 51.3311 5.424C52.0871 5.832 52.6751 6.414 53.0951 7.17C53.5271 7.926 53.7431 8.808 53.7431 9.816ZM50.5931 9.006C50.5931 8.478 50.4131 8.058 50.0531 7.746C49.6931 7.434 49.2431 7.278 48.7031 7.278C48.1871 7.278 47.7491 7.428 47.3891 7.728C47.0411 8.028 46.8251 8.454 46.7411 9.006H50.5931ZM60.2359 2.364C61.5679 2.364 62.7319 2.628 63.7279 3.156C64.7239 3.684 65.4919 4.428 66.0319 5.388C66.5839 6.336 66.8599 7.434 66.8599 8.682C66.8599 9.918 66.5839 11.016 66.0319 11.976C65.4919 12.936 64.7179 13.68 63.7099 14.208C62.7139 14.736 61.5559 15 60.2359 15H55.5019V2.364H60.2359ZM60.0379 12.336C61.2019 12.336 62.1079 12.018 62.7559 11.382C63.4039 10.746 63.7279 9.846 63.7279 8.682C63.7279 7.518 63.4039 6.612 62.7559 5.964C62.1079 5.316 61.2019 4.992 60.0379 4.992H58.5799V12.336H60.0379ZM78.1831 9.816C78.1831 10.104 78.1651 10.404 78.1291 10.716H71.1631C71.2111 11.34 71.4091 11.82 71.7571 12.156C72.1171 12.48 72.5551 12.642 73.0711 12.642C73.8391 12.642 74.3731 12.318 74.6731 11.67H77.9491C77.7811 12.33 77.4751 12.924 77.0311 13.452C76.5991 13.98 76.0531 14.394 75.3931 14.694C74.7331 14.994 73.9951 15.144 73.1791 15.144C72.1951 15.144 71.3191 14.934 70.5511 14.514C69.7831 14.094 69.1831 13.494 68.7511 12.714C68.3191 11.934 68.1031 11.022 68.1031 9.978C68.1031 8.934 68.3131 8.022 68.7331 7.242C69.1651 6.462 69.7651 5.862 70.5331 5.442C71.3011 5.022 72.1831 4.812 73.1791 4.812C74.1511 4.812 75.0151 5.016 75.7711 5.424C76.5271 5.832 77.1151 6.414 77.5351 7.17C77.9671 7.926 78.1831 8.808 78.1831 9.816ZM75.0331 9.006C75.0331 8.478 74.8531 8.058 74.4931 7.746C74.1331 7.434 73.6831 7.278 73.1431 7.278C72.6271 7.278 72.1891 7.428 71.8291 7.728C71.4811 8.028 71.2651 8.454 71.1811 9.006H75.0331ZM83.0199 1.68V15H79.9419V1.68H83.0199ZM86.9335 3.912C86.3935 3.912 85.9495 3.756 85.6015 3.444C85.2655 3.12 85.0975 2.724 85.0975 2.256C85.0975 1.776 85.2655 1.38 85.6015 1.068C85.9495 0.743999 86.3935 0.581999 86.9335 0.581999C87.4615 0.581999 87.8935 0.743999 88.2295 1.068C88.5775 1.38 88.7515 1.776 88.7515 2.256C88.7515 2.724 88.5775 3.12 88.2295 3.444C87.8935 3.756 87.4615 3.912 86.9335 3.912ZM88.4635 4.956V15H85.3855V4.956H88.4635ZM95.347 12.12L97.525 4.956H100.801L97.237 15H93.439L89.875 4.956H93.169L95.347 12.12ZM111.7 9.816C111.7 10.104 111.682 10.404 111.646 10.716H104.68C104.728 11.34 104.926 11.82 105.274 12.156C105.634 12.48 106.072 12.642 106.588 12.642C107.356 12.642 107.89 12.318 108.19 11.67H111.466C111.298 12.33 110.992 12.924 110.548 13.452C110.116 13.98 109.57 14.394 108.91 14.694C108.25 14.994 107.512 15.144 106.696 15.144C105.712 15.144 104.836 14.934 104.068 14.514C103.3 14.094 102.7 13.494 102.268 12.714C101.836 11.934 101.62 11.022 101.62 9.978C101.62 8.934 101.83 8.022 102.25 7.242C102.682 6.462 103.282 5.862 104.05 5.442C104.818 5.022 105.7 4.812 106.696 4.812C107.668 4.812 108.532 5.016 109.288 5.424C110.044 5.832 110.632 6.414 111.052 7.17C111.484 7.926 111.7 8.808 111.7 9.816ZM108.55 9.006C108.55 8.478 108.37 8.058 108.01 7.746C107.65 7.434 107.2 7.278 106.66 7.278C106.144 7.278 105.706 7.428 105.346 7.728C104.998 8.028 104.782 8.454 104.698 9.006H108.55ZM116.536 6.63C116.896 6.078 117.346 5.646 117.886 5.334C118.426 5.01 119.026 4.848 119.686 4.848V8.106H118.84C118.072 8.106 117.496 8.274 117.112 8.61C116.728 8.934 116.536 9.51 116.536 10.338V15H113.458V4.956H116.536V6.63ZM131.553 4.956L125.253 19.77H121.941L124.245 14.658L120.159 4.956H123.597L125.919 11.238L128.223 4.956H131.553Z" fill="#4B40E6"/>
</svg>
