<svg width="162" height="40" viewBox="0 0 162 40" fill="none" xmlns="http://www.w3.org/2000/svg">
<rect x="0.5" width="161" height="40" rx="5" fill="#96E588"/>
<g clip-path="url(#clip0_2558_1416)">
<path fill-rule="evenodd" clip-rule="evenodd" d="M64.7403 16.2007C64.6069 11.3408 68.2204 8.02409 72.4445 8.02409C76.6684 8.02409 80.2812 11.3406 80.1498 16.2012C80.068 19.2249 79.0414 21.1595 77.6906 23.7052L77.6901 23.7061C77.4705 24.1198 77.2424 24.5497 77.0084 25.0031C75.5435 27.8409 72.4351 31.7826 72.4351 31.7826C72.4351 31.7826 69.345 27.8344 67.8849 24.9978C67.662 24.5647 67.4442 24.1518 67.234 23.7531C65.8697 21.1658 64.8221 19.1792 64.7403 16.2007ZM75.4757 30.9857C75.4757 30.9857 73.7357 33.5 73.3403 34C72.945 34.5 71.945 34.5 71.5486 34C71.1522 33.5 69.4119 31.0164 69.4119 31.0164L66.563 26.3642C66.563 26.3642 63.0664 20.5274 62.9494 16.2634C62.786 10.3079 67.1685 6 72.4445 6C77.7207 6 82.1017 10.308 81.9407 16.263C81.8231 20.6072 78.3219 26.3799 78.3219 26.3799L75.4757 30.9857ZM72.445 28C73.2734 28 73.945 27.3284 73.945 26.5C73.945 25.6716 73.2734 25 72.445 25C71.6166 25 70.945 25.6716 70.945 26.5C70.945 27.3284 71.6166 28 72.445 28ZM21.98 22.47C22.35 22.54 22.705 22.62 23.045 22.71C23.395 22.79 23.705 22.91 23.975 23.07C24.245 23.22 24.46 23.425 24.62 23.685C24.78 23.935 24.86 24.265 24.86 24.675C24.86 25.095 24.77 25.46 24.59 25.77C24.41 26.07 24.16 26.32 23.84 26.52C23.53 26.71 23.165 26.855 22.745 26.955C22.325 27.045 21.87 27.09 21.38 27.09C21.18 27.09 20.955 27.08 20.705 27.06C20.465 27.05 20.215 27.03 19.955 27C19.695 26.97 19.44 26.935 19.19 26.895C18.94 26.855 18.71 26.81 18.5 26.76V25.065C18.67 25.115 18.875 25.16 19.115 25.2C19.365 25.23 19.625 25.26 19.895 25.29L20.705 25.35C20.985 25.36 21.24 25.365 21.47 25.365C22.07 25.365 22.495 25.32 22.745 25.23C23.005 25.13 23.135 24.975 23.135 24.765C23.135 24.695 23.11 24.635 23.06 24.585C23.02 24.525 22.93 24.47 22.79 24.42C22.66 24.36 22.47 24.305 22.22 24.255C21.97 24.195 21.64 24.125 21.23 24.045C21.04 24.005 20.795 23.955 20.495 23.895C20.195 23.835 19.9 23.725 19.61 23.565C19.33 23.405 19.085 23.185 18.875 22.905C18.665 22.625 18.56 22.25 18.56 21.78C18.56 21.38 18.64 21.035 18.8 20.745C18.96 20.445 19.18 20.2 19.46 20.01C19.75 19.81 20.09 19.665 20.48 19.575C20.87 19.475 21.295 19.425 21.755 19.425C21.935 19.425 22.14 19.435 22.37 19.455C22.61 19.465 22.85 19.485 23.09 19.515C23.33 19.545 23.57 19.58 23.81 19.62C24.05 19.66 24.27 19.705 24.47 19.755V21.45C24.33 21.41 24.145 21.375 23.915 21.345C23.685 21.305 23.44 21.27 23.18 21.24C22.93 21.21 22.67 21.19 22.4 21.18C22.14 21.16 21.905 21.15 21.695 21.15C21.165 21.15 20.795 21.2 20.585 21.3C20.385 21.4 20.285 21.54 20.285 21.72C20.285 21.82 20.31 21.905 20.36 21.975C20.42 22.035 20.515 22.095 20.645 22.155C20.775 22.205 20.95 22.255 21.17 22.305C21.39 22.355 21.66 22.41 21.98 22.47ZM28.7778 20.355C29.0278 20.065 29.3278 19.84 29.6778 19.68C30.0378 19.51 30.4528 19.425 30.9228 19.425C31.4328 19.425 31.8978 19.525 32.3178 19.725C32.7378 19.925 33.0978 20.2 33.3978 20.55C33.6978 20.89 33.9278 21.295 34.0878 21.765C34.2478 22.225 34.3278 22.72 34.3278 23.25V27H32.5278V23.25C32.5278 22.61 32.3878 22.095 32.1078 21.705C31.8278 21.305 31.3678 21.105 30.7278 21.105C30.0978 21.105 29.6178 21.295 29.2878 21.675C28.9678 22.055 28.7978 22.55 28.7778 23.16V27H26.9778V16.5H28.7778V20.355ZM36.3162 23.235C36.3162 22.715 36.4012 22.225 36.5712 21.765C36.7412 21.295 36.9912 20.89 37.3212 20.55C37.6512 20.2 38.0562 19.925 38.5362 19.725C39.0162 19.525 39.5612 19.425 40.1712 19.425C40.7412 19.425 41.2562 19.515 41.7162 19.695C42.1762 19.875 42.5662 20.13 42.8862 20.46C43.2162 20.79 43.4712 21.195 43.6512 21.675C43.8412 22.145 43.9462 22.67 43.9662 23.25C43.9762 23.44 43.9812 23.675 43.9812 23.955C43.9812 24.225 43.9962 24.525 44.0262 24.855C44.0562 25.185 44.1112 25.535 44.1912 25.905C44.2712 26.265 44.3962 26.63 44.5662 27H42.7662C42.5962 26.63 42.4712 26.245 42.3912 25.845C42.1312 26.225 41.8012 26.525 41.4012 26.745C41.0012 26.965 40.5212 27.075 39.9612 27.075C39.4312 27.075 38.9412 26.975 38.4912 26.775C38.0412 26.575 37.6562 26.305 37.3362 25.965C37.0162 25.615 36.7662 25.21 36.5862 24.75C36.4062 24.28 36.3162 23.775 36.3162 23.235ZM40.1712 21.105C39.8012 21.105 39.4862 21.16 39.2262 21.27C38.9662 21.38 38.7512 21.535 38.5812 21.735C38.4212 21.925 38.3012 22.15 38.2212 22.41C38.1512 22.67 38.1162 22.95 38.1162 23.25C38.1162 23.55 38.1512 23.83 38.2212 24.09C38.3012 24.35 38.4212 24.58 38.5812 24.78C38.7512 24.97 38.9662 25.12 39.2262 25.23C39.4862 25.34 39.8012 25.395 40.1712 25.395C40.7912 25.395 41.2762 25.225 41.6262 24.885C41.9862 24.535 42.1662 23.99 42.1662 23.25C42.1362 22.59 41.9662 22.07 41.6562 21.69C41.3462 21.3 40.8512 21.105 40.1712 21.105ZM48.31 27H46.51V23.265C46.51 22.735 46.595 22.235 46.765 21.765C46.935 21.295 47.185 20.89 47.515 20.55C47.845 20.2 48.25 19.925 48.73 19.725C49.21 19.525 49.76 19.425 50.38 19.425C50.49 19.425 50.6 19.435 50.71 19.455C50.82 19.465 50.93 19.48 51.04 19.5V21.24C50.94 21.22 50.845 21.205 50.755 21.195C50.665 21.175 50.57 21.165 50.47 21.165C50.06 21.165 49.715 21.22 49.435 21.33C49.165 21.44 48.945 21.59 48.775 21.78C48.605 21.96 48.485 22.18 48.415 22.44C48.345 22.69 48.31 22.96 48.31 23.25V27ZM56.1578 24.375C55.8278 24.375 55.4878 24.335 55.1378 24.255C54.7978 24.175 54.4828 24.065 54.1928 23.925C54.2828 24.355 54.4978 24.7 54.8378 24.96C55.1878 25.22 55.7328 25.35 56.4728 25.35C56.6328 25.35 56.8178 25.345 57.0278 25.335C57.2378 25.315 57.4528 25.295 57.6728 25.275C57.8928 25.255 58.1028 25.23 58.3028 25.2C58.5028 25.16 58.6728 25.115 58.8128 25.065V26.76C58.6328 26.81 58.4328 26.855 58.2128 26.895C58.0028 26.935 57.7878 26.97 57.5678 27C57.3478 27.03 57.1328 27.05 56.9228 27.06C56.7228 27.08 56.5328 27.09 56.3528 27.09C55.6828 27.09 55.0928 26.99 54.5828 26.79C54.0828 26.59 53.6628 26.32 53.3228 25.98C52.9928 25.63 52.7428 25.225 52.5728 24.765C52.4128 24.295 52.3328 23.8 52.3328 23.28C52.3328 22.74 52.4178 22.24 52.5878 21.78C52.7578 21.31 53.0028 20.9 53.3228 20.55C53.6528 20.2 54.0528 19.925 54.5228 19.725C55.0028 19.525 55.5478 19.425 56.1578 19.425C56.6178 19.425 57.0428 19.485 57.4328 19.605C57.8228 19.725 58.1578 19.895 58.4378 20.115C58.7278 20.335 58.9478 20.595 59.0978 20.895C59.2578 21.195 59.3378 21.53 59.3378 21.9C59.3378 22.27 59.2578 22.61 59.0978 22.92C58.9478 23.22 58.7328 23.48 58.4528 23.7C58.1728 23.91 57.8378 24.075 57.4478 24.195C57.0578 24.315 56.6278 24.375 56.1578 24.375ZM56.1728 22.635C56.5928 22.635 56.9228 22.575 57.1628 22.455C57.4028 22.325 57.5228 22.14 57.5228 21.9C57.5228 21.66 57.4028 21.48 57.1628 21.36C56.9328 21.23 56.6178 21.165 56.2178 21.165C55.6878 21.165 55.2678 21.27 54.9578 21.48C54.6578 21.68 54.4378 21.95 54.2978 22.29C54.5678 22.4 54.8678 22.485 55.1978 22.545C55.5378 22.605 55.8628 22.635 56.1728 22.635ZM93.06 16.5H91.26V20.37C91 20.08 90.685 19.85 90.315 19.68C89.955 19.51 89.535 19.425 89.055 19.425C88.525 19.425 88.035 19.525 87.585 19.725C87.135 19.925 86.75 20.2 86.43 20.55C86.11 20.89 85.86 21.295 85.68 21.765C85.5 22.225 85.41 22.725 85.41 23.265C85.41 23.765 85.49 24.245 85.65 24.705C85.81 25.165 86.05 25.57 86.37 25.92C86.7 26.27 87.105 26.55 87.585 26.76C88.065 26.97 88.62 27.075 89.25 27.075C89.86 27.075 90.4 26.975 90.87 26.775C91.35 26.575 91.75 26.305 92.07 25.965C92.4 25.615 92.645 25.21 92.805 24.75C92.975 24.28 93.06 23.78 93.06 23.25V16.5ZM87.675 24.78C87.515 24.58 87.395 24.35 87.315 24.09C87.245 23.83 87.21 23.55 87.21 23.25C87.21 22.95 87.245 22.67 87.315 22.41C87.395 22.15 87.515 21.925 87.675 21.735C87.845 21.535 88.06 21.38 88.32 21.27C88.58 21.16 88.895 21.105 89.265 21.105C89.885 21.105 90.37 21.28 90.72 21.63C91.08 21.97 91.26 22.51 91.26 23.25C91.26 23.99 91.08 24.535 90.72 24.885C90.37 25.225 89.885 25.395 89.265 25.395C88.895 25.395 88.58 25.34 88.32 25.23C88.06 25.12 87.845 24.97 87.675 24.78ZM97.8712 24.255C98.2212 24.335 98.5612 24.375 98.8912 24.375C99.3612 24.375 99.7912 24.315 100.181 24.195C100.571 24.075 100.906 23.91 101.186 23.7C101.466 23.48 101.681 23.22 101.831 22.92C101.991 22.61 102.071 22.27 102.071 21.9C102.071 21.53 101.991 21.195 101.831 20.895C101.681 20.595 101.461 20.335 101.171 20.115C100.891 19.895 100.556 19.725 100.166 19.605C99.7762 19.485 99.3512 19.425 98.8912 19.425C98.2812 19.425 97.7362 19.525 97.2562 19.725C96.7862 19.925 96.3862 20.2 96.0562 20.55C95.7362 20.9 95.4912 21.31 95.3212 21.78C95.1512 22.24 95.0662 22.74 95.0662 23.28C95.0662 23.8 95.1462 24.295 95.3062 24.765C95.4762 25.225 95.7262 25.63 96.0562 25.98C96.3962 26.32 96.8162 26.59 97.3162 26.79C97.8262 26.99 98.4162 27.09 99.0862 27.09C99.2662 27.09 99.4562 27.08 99.6562 27.06C99.8662 27.05 100.081 27.03 100.301 27C100.521 26.97 100.736 26.935 100.946 26.895C101.166 26.855 101.366 26.81 101.546 26.76V25.065C101.406 25.115 101.236 25.16 101.036 25.2C100.836 25.23 100.626 25.255 100.406 25.275C100.186 25.295 99.9712 25.315 99.7612 25.335C99.5512 25.345 99.3662 25.35 99.2062 25.35C98.4662 25.35 97.9212 25.22 97.5712 24.96C97.2312 24.7 97.0162 24.355 96.9262 23.925C97.2162 24.065 97.5312 24.175 97.8712 24.255ZM99.8962 22.455C99.6562 22.575 99.3262 22.635 98.9062 22.635C98.5962 22.635 98.2712 22.605 97.9312 22.545C97.6012 22.485 97.3012 22.4 97.0312 22.29C97.1712 21.95 97.3912 21.68 97.6912 21.48C98.0012 21.27 98.4212 21.165 98.9512 21.165C99.3512 21.165 99.6662 21.23 99.8962 21.36C100.136 21.48 100.256 21.66 100.256 21.9C100.256 22.14 100.136 22.325 99.8962 22.455ZM104.235 27H106.035V16.5H104.235V27ZM108.633 16.68C108.433 16.9 108.333 17.17 108.333 17.49C108.333 17.81 108.433 18.085 108.633 18.315C108.843 18.535 109.128 18.645 109.488 18.645C109.848 18.645 110.128 18.535 110.328 18.315C110.528 18.085 110.628 17.81 110.628 17.49C110.628 17.18 110.528 16.915 110.328 16.695C110.128 16.465 109.848 16.35 109.488 16.35C109.128 16.35 108.843 16.46 108.633 16.68ZM118.418 19.5L116.169 25.125L113.919 19.5H112.119L115.269 27H117.069L120.218 19.5H118.418ZM108.588 27H110.388V19.5H108.588V27ZM123.972 24.255C124.322 24.335 124.662 24.375 124.992 24.375C125.462 24.375 125.892 24.315 126.282 24.195C126.672 24.075 127.007 23.91 127.287 23.7C127.567 23.48 127.782 23.22 127.932 22.92C128.092 22.61 128.172 22.27 128.172 21.9C128.172 21.53 128.092 21.195 127.932 20.895C127.782 20.595 127.562 20.335 127.272 20.115C126.992 19.895 126.657 19.725 126.267 19.605C125.877 19.485 125.452 19.425 124.992 19.425C124.382 19.425 123.837 19.525 123.357 19.725C122.887 19.925 122.487 20.2 122.157 20.55C121.837 20.9 121.592 21.31 121.422 21.78C121.252 22.24 121.167 22.74 121.167 23.28C121.167 23.8 121.247 24.295 121.407 24.765C121.577 25.225 121.827 25.63 122.157 25.98C122.497 26.32 122.917 26.59 123.417 26.79C123.927 26.99 124.517 27.09 125.187 27.09C125.367 27.09 125.557 27.08 125.757 27.06C125.967 27.05 126.182 27.03 126.402 27C126.622 26.97 126.837 26.935 127.047 26.895C127.267 26.855 127.467 26.81 127.647 26.76V25.065C127.507 25.115 127.337 25.16 127.137 25.2C126.937 25.23 126.727 25.255 126.507 25.275C126.287 25.295 126.072 25.315 125.862 25.335C125.652 25.345 125.467 25.35 125.307 25.35C124.567 25.35 124.022 25.22 123.672 24.96C123.332 24.7 123.117 24.355 123.027 23.925C123.317 24.065 123.632 24.175 123.972 24.255ZM125.997 22.455C125.757 22.575 125.427 22.635 125.007 22.635C124.697 22.635 124.372 22.605 124.032 22.545C123.702 22.485 123.402 22.4 123.132 22.29C123.272 21.95 123.492 21.68 123.792 21.48C124.102 21.27 124.522 21.165 125.052 21.165C125.452 21.165 125.767 21.23 125.997 21.36C126.237 21.48 126.357 21.66 126.357 21.9C126.357 22.14 126.237 22.325 125.997 22.455ZM130.335 27H132.135V23.25C132.135 22.96 132.17 22.69 132.24 22.44C132.31 22.18 132.43 21.96 132.6 21.78C132.77 21.59 132.99 21.44 133.26 21.33C133.54 21.22 133.885 21.165 134.295 21.165C134.395 21.165 134.49 21.175 134.58 21.195C134.67 21.205 134.765 21.22 134.865 21.24V19.5C134.755 19.48 134.645 19.465 134.535 19.455C134.425 19.435 134.315 19.425 134.205 19.425C133.585 19.425 133.035 19.525 132.555 19.725C132.075 19.925 131.67 20.2 131.34 20.55C131.01 20.89 130.76 21.295 130.59 21.765C130.42 22.235 130.335 22.735 130.335 23.265V27ZM141.674 24.795C141.344 25.195 140.859 25.395 140.219 25.395C139.579 25.395 139.119 25.2 138.839 24.81C138.559 24.41 138.419 23.89 138.419 23.25V19.5H136.619V23.25C136.619 23.78 136.699 24.28 136.859 24.75C137.019 25.21 137.249 25.615 137.549 25.965C137.849 26.305 138.209 26.575 138.629 26.775C139.049 26.975 139.514 27.075 140.024 27.075C140.494 27.075 140.904 26.995 141.254 26.835C141.604 26.675 141.909 26.45 142.169 26.16V26.595C142.169 26.895 142.134 27.17 142.064 27.42C141.994 27.68 141.874 27.905 141.704 28.095C141.534 28.285 141.309 28.435 141.029 28.545C140.759 28.655 140.419 28.71 140.009 28.71C139.599 28.71 139.189 28.67 138.779 28.59C138.379 28.52 138.049 28.415 137.789 28.275V30.12C138.109 30.23 138.469 30.31 138.869 30.36C139.279 30.42 139.689 30.45 140.099 30.45C140.719 30.45 141.269 30.35 141.749 30.15C142.229 29.95 142.634 29.675 142.964 29.325C143.294 28.985 143.544 28.58 143.714 28.11C143.884 27.64 143.969 27.14 143.969 26.61V19.5H142.169V23.25C142.169 23.88 142.004 24.395 141.674 24.795Z" fill="#4B40E6" stroke="#4B40E6" stroke-width="0.5" stroke-linecap="round" stroke-linejoin="round"/>
</g>
<defs>
<clipPath id="clip0_2558_1416">
<rect width="127" height="30" fill="white" transform="translate(17.5 5)"/>
</clipPath>
</defs>
</svg>
