<svg width="161" height="40" viewBox="0 0 161 40" fill="none" xmlns="http://www.w3.org/2000/svg">
<rect width="161" height="40" rx="5" fill="#96E588"/>
<g clip-path="url(#clip0_2457_1205)">
<path fill-rule="evenodd" clip-rule="evenodd" d="M64.2403 16.2007C64.1069 11.3408 67.7204 8.02409 71.9445 8.02409C76.1684 8.02409 79.7812 11.3406 79.6498 16.2012C79.568 19.2249 78.5414 21.1595 77.1906 23.7052L77.1901 23.7061C76.9705 24.1198 76.7424 24.5497 76.5084 25.0031C75.0435 27.8409 71.9351 31.7826 71.9351 31.7826C71.9351 31.7826 68.845 27.8344 67.3849 24.9978C67.162 24.5647 66.9442 24.1518 66.734 23.7531C65.3697 21.1658 64.3221 19.1792 64.2403 16.2007ZM74.9757 30.9857C74.9757 30.9857 73.2357 33.5 72.8403 34C72.445 34.5 71.445 34.5 71.0486 34C70.6522 33.5 68.9119 31.0164 68.9119 31.0164L66.063 26.3642C66.063 26.3642 62.5664 20.5274 62.4494 16.2634C62.286 10.3079 66.6685 6 71.9445 6C77.2207 6 81.6017 10.308 81.4407 16.263C81.3231 20.6072 77.8219 26.3799 77.8219 26.3799L74.9757 30.9857ZM71.945 28C72.7734 28 73.445 27.3284 73.445 26.5C73.445 25.6716 72.7734 25 71.945 25C71.1166 25 70.445 25.6716 70.445 26.5C70.445 27.3284 71.1166 28 71.945 28ZM21.48 22.47C21.85 22.54 22.205 22.62 22.545 22.71C22.895 22.79 23.205 22.91 23.475 23.07C23.745 23.22 23.96 23.425 24.12 23.685C24.28 23.935 24.36 24.265 24.36 24.675C24.36 25.095 24.27 25.46 24.09 25.77C23.91 26.07 23.66 26.32 23.34 26.52C23.03 26.71 22.665 26.855 22.245 26.955C21.825 27.045 21.37 27.09 20.88 27.09C20.68 27.09 20.455 27.08 20.205 27.06C19.965 27.05 19.715 27.03 19.455 27C19.195 26.97 18.94 26.935 18.69 26.895C18.44 26.855 18.21 26.81 18 26.76V25.065C18.17 25.115 18.375 25.16 18.615 25.2C18.865 25.23 19.125 25.26 19.395 25.29L20.205 25.35C20.485 25.36 20.74 25.365 20.97 25.365C21.57 25.365 21.995 25.32 22.245 25.23C22.505 25.13 22.635 24.975 22.635 24.765C22.635 24.695 22.61 24.635 22.56 24.585C22.52 24.525 22.43 24.47 22.29 24.42C22.16 24.36 21.97 24.305 21.72 24.255C21.47 24.195 21.14 24.125 20.73 24.045C20.54 24.005 20.295 23.955 19.995 23.895C19.695 23.835 19.4 23.725 19.11 23.565C18.83 23.405 18.585 23.185 18.375 22.905C18.165 22.625 18.06 22.25 18.06 21.78C18.06 21.38 18.14 21.035 18.3 20.745C18.46 20.445 18.68 20.2 18.96 20.01C19.25 19.81 19.59 19.665 19.98 19.575C20.37 19.475 20.795 19.425 21.255 19.425C21.435 19.425 21.64 19.435 21.87 19.455C22.11 19.465 22.35 19.485 22.59 19.515C22.83 19.545 23.07 19.58 23.31 19.62C23.55 19.66 23.77 19.705 23.97 19.755V21.45C23.83 21.41 23.645 21.375 23.415 21.345C23.185 21.305 22.94 21.27 22.68 21.24C22.43 21.21 22.17 21.19 21.9 21.18C21.64 21.16 21.405 21.15 21.195 21.15C20.665 21.15 20.295 21.2 20.085 21.3C19.885 21.4 19.785 21.54 19.785 21.72C19.785 21.82 19.81 21.905 19.86 21.975C19.92 22.035 20.015 22.095 20.145 22.155C20.275 22.205 20.45 22.255 20.67 22.305C20.89 22.355 21.16 22.41 21.48 22.47ZM28.2778 20.355C28.5278 20.065 28.8278 19.84 29.1778 19.68C29.5378 19.51 29.9528 19.425 30.4228 19.425C30.9328 19.425 31.3978 19.525 31.8178 19.725C32.2378 19.925 32.5978 20.2 32.8978 20.55C33.1978 20.89 33.4278 21.295 33.5878 21.765C33.7478 22.225 33.8278 22.72 33.8278 23.25V27H32.0278V23.25C32.0278 22.61 31.8878 22.095 31.6078 21.705C31.3278 21.305 30.8678 21.105 30.2278 21.105C29.5978 21.105 29.1178 21.295 28.7878 21.675C28.4678 22.055 28.2978 22.55 28.2778 23.16V27H26.4778V16.5H28.2778V20.355ZM35.8162 23.235C35.8162 22.715 35.9012 22.225 36.0712 21.765C36.2412 21.295 36.4912 20.89 36.8212 20.55C37.1512 20.2 37.5562 19.925 38.0362 19.725C38.5162 19.525 39.0612 19.425 39.6712 19.425C40.2412 19.425 40.7562 19.515 41.2162 19.695C41.6762 19.875 42.0662 20.13 42.3862 20.46C42.7162 20.79 42.9712 21.195 43.1512 21.675C43.3412 22.145 43.4462 22.67 43.4662 23.25C43.4762 23.44 43.4812 23.675 43.4812 23.955C43.4812 24.225 43.4962 24.525 43.5262 24.855C43.5562 25.185 43.6112 25.535 43.6912 25.905C43.7712 26.265 43.8962 26.63 44.0662 27H42.2662C42.0962 26.63 41.9712 26.245 41.8912 25.845C41.6312 26.225 41.3012 26.525 40.9012 26.745C40.5012 26.965 40.0212 27.075 39.4612 27.075C38.9312 27.075 38.4412 26.975 37.9912 26.775C37.5412 26.575 37.1562 26.305 36.8362 25.965C36.5162 25.615 36.2662 25.21 36.0862 24.75C35.9062 24.28 35.8162 23.775 35.8162 23.235ZM39.6712 21.105C39.3012 21.105 38.9862 21.16 38.7262 21.27C38.4662 21.38 38.2512 21.535 38.0812 21.735C37.9212 21.925 37.8012 22.15 37.7212 22.41C37.6512 22.67 37.6162 22.95 37.6162 23.25C37.6162 23.55 37.6512 23.83 37.7212 24.09C37.8012 24.35 37.9212 24.58 38.0812 24.78C38.2512 24.97 38.4662 25.12 38.7262 25.23C38.9862 25.34 39.3012 25.395 39.6712 25.395C40.2912 25.395 40.7762 25.225 41.1262 24.885C41.4862 24.535 41.6662 23.99 41.6662 23.25C41.6362 22.59 41.4662 22.07 41.1562 21.69C40.8462 21.3 40.3512 21.105 39.6712 21.105ZM47.81 27H46.01V23.265C46.01 22.735 46.095 22.235 46.265 21.765C46.435 21.295 46.685 20.89 47.015 20.55C47.345 20.2 47.75 19.925 48.23 19.725C48.71 19.525 49.26 19.425 49.88 19.425C49.99 19.425 50.1 19.435 50.21 19.455C50.32 19.465 50.43 19.48 50.54 19.5V21.24C50.44 21.22 50.345 21.205 50.255 21.195C50.165 21.175 50.07 21.165 49.97 21.165C49.56 21.165 49.215 21.22 48.935 21.33C48.665 21.44 48.445 21.59 48.275 21.78C48.105 21.96 47.985 22.18 47.915 22.44C47.845 22.69 47.81 22.96 47.81 23.25V27ZM55.6578 24.375C55.3278 24.375 54.9878 24.335 54.6378 24.255C54.2978 24.175 53.9828 24.065 53.6928 23.925C53.7828 24.355 53.9978 24.7 54.3378 24.96C54.6878 25.22 55.2328 25.35 55.9728 25.35C56.1328 25.35 56.3178 25.345 56.5278 25.335C56.7378 25.315 56.9528 25.295 57.1728 25.275C57.3928 25.255 57.6028 25.23 57.8028 25.2C58.0028 25.16 58.1728 25.115 58.3128 25.065V26.76C58.1328 26.81 57.9328 26.855 57.7128 26.895C57.5028 26.935 57.2878 26.97 57.0678 27C56.8478 27.03 56.6328 27.05 56.4228 27.06C56.2228 27.08 56.0328 27.09 55.8528 27.09C55.1828 27.09 54.5928 26.99 54.0828 26.79C53.5828 26.59 53.1628 26.32 52.8228 25.98C52.4928 25.63 52.2428 25.225 52.0728 24.765C51.9128 24.295 51.8328 23.8 51.8328 23.28C51.8328 22.74 51.9178 22.24 52.0878 21.78C52.2578 21.31 52.5028 20.9 52.8228 20.55C53.1528 20.2 53.5528 19.925 54.0228 19.725C54.5028 19.525 55.0478 19.425 55.6578 19.425C56.1178 19.425 56.5428 19.485 56.9328 19.605C57.3228 19.725 57.6578 19.895 57.9378 20.115C58.2278 20.335 58.4478 20.595 58.5978 20.895C58.7578 21.195 58.8378 21.53 58.8378 21.9C58.8378 22.27 58.7578 22.61 58.5978 22.92C58.4478 23.22 58.2328 23.48 57.9528 23.7C57.6728 23.91 57.3378 24.075 56.9478 24.195C56.5578 24.315 56.1278 24.375 55.6578 24.375ZM55.6728 22.635C56.0928 22.635 56.4228 22.575 56.6628 22.455C56.9028 22.325 57.0228 22.14 57.0228 21.9C57.0228 21.66 56.9028 21.48 56.6628 21.36C56.4328 21.23 56.1178 21.165 55.7178 21.165C55.1878 21.165 54.7678 21.27 54.4578 21.48C54.1578 21.68 53.9378 21.95 53.7978 22.29C54.0678 22.4 54.3678 22.485 54.6978 22.545C55.0378 22.605 55.3628 22.635 55.6728 22.635ZM92.56 16.5H90.76V20.37C90.5 20.08 90.185 19.85 89.815 19.68C89.455 19.51 89.035 19.425 88.555 19.425C88.025 19.425 87.535 19.525 87.085 19.725C86.635 19.925 86.25 20.2 85.93 20.55C85.61 20.89 85.36 21.295 85.18 21.765C85 22.225 84.91 22.725 84.91 23.265C84.91 23.765 84.99 24.245 85.15 24.705C85.31 25.165 85.55 25.57 85.87 25.92C86.2 26.27 86.605 26.55 87.085 26.76C87.565 26.97 88.12 27.075 88.75 27.075C89.36 27.075 89.9 26.975 90.37 26.775C90.85 26.575 91.25 26.305 91.57 25.965C91.9 25.615 92.145 25.21 92.305 24.75C92.475 24.28 92.56 23.78 92.56 23.25V16.5ZM87.175 24.78C87.015 24.58 86.895 24.35 86.815 24.09C86.745 23.83 86.71 23.55 86.71 23.25C86.71 22.95 86.745 22.67 86.815 22.41C86.895 22.15 87.015 21.925 87.175 21.735C87.345 21.535 87.56 21.38 87.82 21.27C88.08 21.16 88.395 21.105 88.765 21.105C89.385 21.105 89.87 21.28 90.22 21.63C90.58 21.97 90.76 22.51 90.76 23.25C90.76 23.99 90.58 24.535 90.22 24.885C89.87 25.225 89.385 25.395 88.765 25.395C88.395 25.395 88.08 25.34 87.82 25.23C87.56 25.12 87.345 24.97 87.175 24.78ZM97.3712 24.255C97.7212 24.335 98.0612 24.375 98.3912 24.375C98.8612 24.375 99.2912 24.315 99.6812 24.195C100.071 24.075 100.406 23.91 100.686 23.7C100.966 23.48 101.181 23.22 101.331 22.92C101.491 22.61 101.571 22.27 101.571 21.9C101.571 21.53 101.491 21.195 101.331 20.895C101.181 20.595 100.961 20.335 100.671 20.115C100.391 19.895 100.056 19.725 99.6662 19.605C99.2762 19.485 98.8512 19.425 98.3912 19.425C97.7812 19.425 97.2362 19.525 96.7562 19.725C96.2862 19.925 95.8862 20.2 95.5562 20.55C95.2362 20.9 94.9912 21.31 94.8212 21.78C94.6512 22.24 94.5662 22.74 94.5662 23.28C94.5662 23.8 94.6462 24.295 94.8062 24.765C94.9762 25.225 95.2262 25.63 95.5562 25.98C95.8962 26.32 96.3162 26.59 96.8162 26.79C97.3262 26.99 97.9162 27.09 98.5862 27.09C98.7662 27.09 98.9562 27.08 99.1562 27.06C99.3662 27.05 99.5812 27.03 99.8012 27C100.021 26.97 100.236 26.935 100.446 26.895C100.666 26.855 100.866 26.81 101.046 26.76V25.065C100.906 25.115 100.736 25.16 100.536 25.2C100.336 25.23 100.126 25.255 99.9062 25.275C99.6862 25.295 99.4712 25.315 99.2612 25.335C99.0512 25.345 98.8662 25.35 98.7062 25.35C97.9662 25.35 97.4212 25.22 97.0712 24.96C96.7312 24.7 96.5162 24.355 96.4262 23.925C96.7162 24.065 97.0312 24.175 97.3712 24.255ZM99.3962 22.455C99.1562 22.575 98.8262 22.635 98.4062 22.635C98.0962 22.635 97.7712 22.605 97.4312 22.545C97.1012 22.485 96.8012 22.4 96.5312 22.29C96.6712 21.95 96.8912 21.68 97.1912 21.48C97.5012 21.27 97.9212 21.165 98.4512 21.165C98.8512 21.165 99.1662 21.23 99.3962 21.36C99.6362 21.48 99.7562 21.66 99.7562 21.9C99.7562 22.14 99.6362 22.325 99.3962 22.455ZM103.735 27H105.535V16.5H103.735V27ZM108.133 16.68C107.933 16.9 107.833 17.17 107.833 17.49C107.833 17.81 107.933 18.085 108.133 18.315C108.343 18.535 108.628 18.645 108.988 18.645C109.348 18.645 109.628 18.535 109.828 18.315C110.028 18.085 110.128 17.81 110.128 17.49C110.128 17.18 110.028 16.915 109.828 16.695C109.628 16.465 109.348 16.35 108.988 16.35C108.628 16.35 108.343 16.46 108.133 16.68ZM117.918 19.5L115.669 25.125L113.419 19.5H111.619L114.769 27H116.569L119.718 19.5H117.918ZM108.088 27H109.888V19.5H108.088V27ZM123.472 24.255C123.822 24.335 124.162 24.375 124.492 24.375C124.962 24.375 125.392 24.315 125.782 24.195C126.172 24.075 126.507 23.91 126.787 23.7C127.067 23.48 127.282 23.22 127.432 22.92C127.592 22.61 127.672 22.27 127.672 21.9C127.672 21.53 127.592 21.195 127.432 20.895C127.282 20.595 127.062 20.335 126.772 20.115C126.492 19.895 126.157 19.725 125.767 19.605C125.377 19.485 124.952 19.425 124.492 19.425C123.882 19.425 123.337 19.525 122.857 19.725C122.387 19.925 121.987 20.2 121.657 20.55C121.337 20.9 121.092 21.31 120.922 21.78C120.752 22.24 120.667 22.74 120.667 23.28C120.667 23.8 120.747 24.295 120.907 24.765C121.077 25.225 121.327 25.63 121.657 25.98C121.997 26.32 122.417 26.59 122.917 26.79C123.427 26.99 124.017 27.09 124.687 27.09C124.867 27.09 125.057 27.08 125.257 27.06C125.467 27.05 125.682 27.03 125.902 27C126.122 26.97 126.337 26.935 126.547 26.895C126.767 26.855 126.967 26.81 127.147 26.76V25.065C127.007 25.115 126.837 25.16 126.637 25.2C126.437 25.23 126.227 25.255 126.007 25.275C125.787 25.295 125.572 25.315 125.362 25.335C125.152 25.345 124.967 25.35 124.807 25.35C124.067 25.35 123.522 25.22 123.172 24.96C122.832 24.7 122.617 24.355 122.527 23.925C122.817 24.065 123.132 24.175 123.472 24.255ZM125.497 22.455C125.257 22.575 124.927 22.635 124.507 22.635C124.197 22.635 123.872 22.605 123.532 22.545C123.202 22.485 122.902 22.4 122.632 22.29C122.772 21.95 122.992 21.68 123.292 21.48C123.602 21.27 124.022 21.165 124.552 21.165C124.952 21.165 125.267 21.23 125.497 21.36C125.737 21.48 125.857 21.66 125.857 21.9C125.857 22.14 125.737 22.325 125.497 22.455ZM129.835 27H131.635V23.25C131.635 22.96 131.67 22.69 131.74 22.44C131.81 22.18 131.93 21.96 132.1 21.78C132.27 21.59 132.49 21.44 132.76 21.33C133.04 21.22 133.385 21.165 133.795 21.165C133.895 21.165 133.99 21.175 134.08 21.195C134.17 21.205 134.265 21.22 134.365 21.24V19.5C134.255 19.48 134.145 19.465 134.035 19.455C133.925 19.435 133.815 19.425 133.705 19.425C133.085 19.425 132.535 19.525 132.055 19.725C131.575 19.925 131.17 20.2 130.84 20.55C130.51 20.89 130.26 21.295 130.09 21.765C129.92 22.235 129.835 22.735 129.835 23.265V27ZM141.174 24.795C140.844 25.195 140.359 25.395 139.719 25.395C139.079 25.395 138.619 25.2 138.339 24.81C138.059 24.41 137.919 23.89 137.919 23.25V19.5H136.119V23.25C136.119 23.78 136.199 24.28 136.359 24.75C136.519 25.21 136.749 25.615 137.049 25.965C137.349 26.305 137.709 26.575 138.129 26.775C138.549 26.975 139.014 27.075 139.524 27.075C139.994 27.075 140.404 26.995 140.754 26.835C141.104 26.675 141.409 26.45 141.669 26.16V26.595C141.669 26.895 141.634 27.17 141.564 27.42C141.494 27.68 141.374 27.905 141.204 28.095C141.034 28.285 140.809 28.435 140.529 28.545C140.259 28.655 139.919 28.71 139.509 28.71C139.099 28.71 138.689 28.67 138.279 28.59C137.879 28.52 137.549 28.415 137.289 28.275V30.12C137.609 30.23 137.969 30.31 138.369 30.36C138.779 30.42 139.189 30.45 139.599 30.45C140.219 30.45 140.769 30.35 141.249 30.15C141.729 29.95 142.134 29.675 142.464 29.325C142.794 28.985 143.044 28.58 143.214 28.11C143.384 27.64 143.469 27.14 143.469 26.61V19.5H141.669V23.25C141.669 23.88 141.504 24.395 141.174 24.795Z" fill="#4B40E6" stroke="#4B40E6" stroke-width="0.5" stroke-linecap="round" stroke-linejoin="round"/>
</g>
<defs>
<clipPath id="clip0_2457_1205">
<rect width="127" height="30" fill="white" transform="translate(17 5)"/>
</clipPath>
</defs>
</svg>
