<svg width="25" height="24" viewBox="0 0 25 24" fill="none" xmlns="http://www.w3.org/2000/svg">
<path d="M22.1113 19.5354L18.3844 15.8109C18.3175 15.744 18.2265 15.7063 18.1317 15.7063C18.1317 15.7063 18.1317 15.7063 18.1314 15.7063C18.0369 15.7063 17.9459 15.744 17.8787 15.8109L17.2672 16.4229L16.1671 15.323C17.5092 13.9116 18.3353 12.0057 18.3353 9.90888C18.3353 5.57216 14.8071 2.04395 10.4704 2.04395C6.13393 2.04371 2.60571 5.57192 2.60571 9.90864C2.60571 14.2456 6.13393 17.7736 10.4706 17.7736C12.454 17.7736 14.2671 17.0339 15.6521 15.8183L16.7624 16.9284L16.2502 17.4408C16.1109 17.5804 16.1109 17.8067 16.2505 17.946L19.9771 21.6705C20.0441 21.7375 20.1351 21.7751 20.2299 21.7751C20.3247 21.7751 20.4154 21.7375 20.4826 21.6705L22.1115 20.0407C22.1785 19.9737 22.2161 19.8827 22.2161 19.7879C22.2159 19.6931 22.1782 19.6024 22.1113 19.5354ZM3.32036 9.90864C3.32036 5.96593 6.52794 2.75835 10.4706 2.75835C14.4134 2.75835 17.6209 5.96593 17.6209 9.90864C17.6209 13.8513 14.4134 17.0589 10.4706 17.0589C6.52794 17.0589 3.32036 13.8513 3.32036 9.90864ZM20.2294 20.9125L17.0085 17.6931L18.1321 16.5687L21.3533 19.7882L20.2294 20.9125Z" fill="#676767" stroke="#676767" stroke-width="0.5"/>
</svg>
