<svg width="24" height="24" viewBox="0 0 24 24" fill="none" xmlns="http://www.w3.org/2000/svg">
<g clip-path="url(#clip0_3883_14452)">
<path d="M11.9699 7.30176C9.52781 7.30176 7.54102 9.28855 7.54102 11.7307C7.54102 14.1728 9.52781 16.1596 11.9699 16.1596C14.4121 16.1596 16.3989 14.1728 16.3989 11.7307C16.3989 9.28855 14.4121 7.30176 11.9699 7.30176ZM11.9699 15.4414C9.92378 15.4414 8.25922 13.7769 8.25922 11.7307C8.25922 9.68452 9.92378 8.01996 11.9699 8.01996C14.0161 8.01996 15.6807 9.68452 15.6807 11.7307C15.6807 13.7769 14.0161 15.4414 11.9699 15.4414Z" fill="black" stroke="black" stroke-width="0.5"/>
<path d="M22.7971 9.93539L19.9319 9.50183C19.7744 8.97084 19.5616 8.45517 19.2973 7.96368L21.0152 5.63358C21.1206 5.49066 21.1057 5.29219 20.9803 5.16651L18.774 2.96042C18.6483 2.83498 18.4498 2.8199 18.3069 2.92523L15.9842 4.63743C15.4906 4.3693 14.9715 4.15336 14.4362 3.9932L14.0051 1.14337C13.9785 0.967646 13.8277 0.837891 13.65 0.837891H10.5302C10.3525 0.837891 10.2017 0.967646 10.1751 1.14337L9.74397 3.9932C9.20867 4.15336 8.68965 4.36954 8.196 4.63743L5.87333 2.92523C5.73041 2.8199 5.53194 2.83474 5.40626 2.96042L3.20017 5.16651C3.07472 5.29196 3.05964 5.49066 3.16498 5.63358L4.88292 7.96368C4.61862 8.45517 4.4058 8.97084 4.24827 9.50183L1.38311 9.93539C1.20739 9.96196 1.07764 10.1128 1.07764 10.2904V13.4103C1.07764 13.5879 1.20739 13.7388 1.38287 13.7653L4.26216 14.201C4.42136 14.7263 4.63371 15.235 4.89585 15.7191L3.16474 18.0671C3.0594 18.2101 3.07448 18.4085 3.19993 18.5342L5.40602 20.7403C5.53146 20.866 5.73017 20.8808 5.87309 20.7755L8.2288 19.0389C8.71048 19.2974 9.21609 19.5067 9.73703 19.663L10.1749 22.5574C10.2015 22.7331 10.3523 22.8628 10.5299 22.8628H13.6498C13.8274 22.8628 13.9783 22.7331 14.0048 22.5574L14.4427 19.663C14.9636 19.5067 15.4693 19.2974 15.9509 19.0389L18.3066 20.7755C18.4496 20.8808 18.648 20.8657 18.7737 20.7403L20.98 18.5342C21.1055 18.4088 21.1206 18.2101 21.015 18.0671L19.2839 15.7191C19.5463 15.235 19.7586 14.7263 19.9176 14.201L22.7969 13.7653C22.9723 13.7388 23.1021 13.5879 23.1021 13.4103V10.2904C23.1023 10.113 22.9726 9.96196 22.7971 9.93539ZM22.3841 13.1015L19.5824 13.5255C19.4416 13.5468 19.3267 13.6492 19.2894 13.7864C19.1208 14.4076 18.8709 15.0062 18.5465 15.5656C18.4747 15.6894 18.4831 15.8438 18.5681 15.959L20.2535 18.245L18.484 20.0144L16.1911 18.324C16.0761 18.2395 15.9224 18.2306 15.7992 18.3018C15.2411 18.6223 14.6457 18.8689 14.0288 19.0343C13.8911 19.0714 13.7882 19.1863 13.7669 19.3276L13.3407 22.1451H10.8385L10.4124 19.3276C10.3911 19.1866 10.2881 19.0714 10.1505 19.0343C9.53354 18.8689 8.93815 18.6223 8.3801 18.3018C8.25681 18.2309 8.10287 18.2397 7.9882 18.324L5.69521 20.0144L3.9258 18.245L5.61118 15.959C5.69593 15.8438 5.70455 15.6894 5.63273 15.5656C5.30834 15.0064 5.0584 14.4076 4.88987 13.7864C4.85252 13.649 4.73761 13.5468 4.59684 13.5255L1.79512 13.1015V10.5992L4.58415 10.1774C4.72564 10.1561 4.84103 10.0527 4.87766 9.91432C5.04356 9.28804 5.29302 8.68284 5.61956 8.11546C5.69066 7.99193 5.68181 7.83799 5.5973 7.72332L3.9258 5.45595L5.69521 3.68653L7.95588 5.353C8.07103 5.43775 8.22545 5.44637 8.34946 5.37431C8.91804 5.04394 9.52635 4.79089 10.1569 4.62211C10.2948 4.58524 10.3978 4.47009 10.4191 4.32884L10.8385 1.55586H13.3407L13.7602 4.32884C13.7815 4.47009 13.8844 4.58524 14.0223 4.62211C14.6529 4.79089 15.261 5.04394 15.8298 5.37431C15.9536 5.44661 16.108 5.43775 16.2234 5.353L18.484 3.68653L20.2535 5.45595L18.582 7.72332C18.4974 7.83799 18.4886 7.99193 18.5597 8.11546C18.886 8.68284 19.1357 9.28804 19.3016 9.91432C19.3382 10.0527 19.4536 10.1559 19.5951 10.1774L22.3841 10.5992V13.1015Z" fill="black" stroke="black" stroke-width="0.5"/>
</g>
<defs>
<clipPath id="clip0_3883_14452">
<rect width="24" height="24" fill="white"/>
</clipPath>
</defs>
</svg>
