<svg width="16" height="16" viewBox="0 0 16 16" fill="none" xmlns="http://www.w3.org/2000/svg">
<path d="M3.70338 10.105L2.86594 14.9065C2.84853 15.0009 2.85889 15.0981 2.89582 15.1869C2.93274 15.2756 2.99469 15.3522 3.07439 15.4076C3.15408 15.4629 3.24821 15.4948 3.3457 15.4994C3.4432 15.504 3.54001 15.4812 3.62477 15.4337L8 13.1672L12.3889 15.4337C12.4736 15.4777 12.5691 15.4975 12.6647 15.4909C12.7603 15.4843 12.8521 15.4516 12.9297 15.3963C13.0072 15.3411 13.0675 15.2656 13.1036 15.1784C13.1398 15.0913 13.1503 14.9959 13.1341 14.9032L12.2966 10.1016L15.8447 6.70366C15.9133 6.63811 15.9619 6.55499 15.9849 6.46371C16.008 6.37243 16.0045 6.27664 15.975 6.18718C15.9455 6.09773 15.891 6.01818 15.8179 5.95754C15.7447 5.8969 15.6557 5.8576 15.561 5.84409L10.6525 5.14569L8.45803 0.780683C8.41568 0.696428 8.35019 0.62549 8.26894 0.575888C8.1877 0.526287 8.09395 0.5 7.99829 0.5C7.90263 0.5 7.80888 0.526287 7.72764 0.575888C7.6464 0.62549 7.5809 0.696428 7.53855 0.780683L5.33384 5.14569L0.439048 5.84409C0.344306 5.8576 0.255308 5.8969 0.182131 5.95754C0.108954 6.01818 0.0545201 6.09773 0.024994 6.18718C-0.00453206 6.27664 -0.00797137 6.37243 0.0150653 6.46371C0.038102 6.55499 0.0866947 6.63811 0.155341 6.70366L3.70338 10.105Z" fill="#E1F94B"/>
</svg>
