<svg width="32" height="24" viewBox="0 0 32 24" fill="none" xmlns="http://www.w3.org/2000/svg">
<path d="M5.38345 1C4.62521 1 4 1.62521 4 2.38345V15.1081C4 15.9158 4.65182 16.5676 5.45946 16.5676H7.45101C7.68285 17.9472 8.88197 19 10.3243 19C11.7667 19 12.9658 17.9472 13.1976 16.5676H17.6976C18.0568 16.5676 18.378 16.4155 18.625 16.1875C18.8777 16.4098 19.2008 16.5638 19.5676 16.5676H20.0997C20.3315 17.9472 21.5306 19 22.973 19C24.5788 19 25.8919 17.6869 25.8919 16.0811C25.8919 14.4753 24.5788 13.1622 22.973 13.1622C21.5306 13.1622 20.3315 14.2149 20.0997 15.5946H19.5676C19.4764 15.5946 19.3376 15.5319 19.2331 15.4274C19.1286 15.3228 19.0811 15.1974 19.0811 15.1081V5.86486C19.0811 5.68243 19.3851 5.37838 19.5676 5.37838H23.4595C23.8414 5.37838 24.3792 5.78695 24.7517 6.22973C24.7555 6.23543 24.7631 6.23923 24.7669 6.24493L24.8429 6.35135H22.4865C21.7111 6.35135 21.027 6.97846 21.027 7.81081V9.75676C21.027 10.1615 21.2095 10.5169 21.4679 10.7753C21.7264 11.0338 22.0817 11.2162 22.4865 11.2162H27.3514V15.1081C27.3514 15.2905 27.0473 15.5946 26.8649 15.5946H25.8919V16.5676H26.8649C27.6725 16.5676 28.3243 15.9158 28.3243 15.1081V10.4257C28.3243 9.31208 27.549 8.3277 27.549 8.3277H27.5338L25.527 5.65203V5.63682L25.5118 5.62162C25.0633 5.08003 24.3906 4.40541 23.4595 4.40541H19.5676C19.3946 4.40541 19.235 4.44151 19.0811 4.49662V2.41385C19.0811 1.66702 18.492 1 17.7128 1H5.38345ZM5.38345 1.97297H17.7128C17.9219 1.97297 18.1081 2.17441 18.1081 2.41385V15.1841C18.1081 15.4122 17.9276 15.5946 17.6976 15.5946H13.1976C12.9658 14.2149 11.7667 13.1622 10.3243 13.1622C8.88197 13.1622 7.68285 14.2149 7.45101 15.5946H5.45946C5.27703 15.5946 4.97297 15.2886 4.97297 15.1081V2.38345C4.97297 2.15541 5.1516 1.97297 5.38345 1.97297ZM22.4865 7.32432H25.5726L26.7584 8.90541C26.7584 8.90541 27.1993 9.65984 27.2905 10.2432H22.4865C22.4048 10.2432 22.2736 10.1824 22.1672 10.076C22.0608 9.96959 22 9.83847 22 9.75676V7.81081C22 7.56567 22.2889 7.32432 22.4865 7.32432ZM10.3243 14.1351C11.4056 14.1351 12.2703 14.9998 12.2703 16.0811C12.2703 17.1624 11.4056 18.027 10.3243 18.027C9.24303 18.027 8.37838 17.1624 8.37838 16.0811C8.37838 14.9998 9.24303 14.1351 10.3243 14.1351ZM22.973 14.1351C24.0543 14.1351 24.9189 14.9998 24.9189 16.0811C24.9189 17.1624 24.0543 18.027 22.973 18.027C21.8917 18.027 21.027 17.1624 21.027 16.0811C21.027 14.9998 21.8917 14.1351 22.973 14.1351Z" fill="#676767"/>
</svg>
