<svg width="27" height="22" viewBox="0 0 27 22" fill="none" xmlns="http://www.w3.org/2000/svg">
<path d="M24.0145 9.56182L23.0982 6.81182C22.6645 5.51091 21.4518 4.63636 20.08 4.63636H17.9291C17.7018 2.59364 15.9655 1 13.8636 1H6.59091C4.33545 1 2.5 2.83545 2.5 5.09091V18.2727C2.5 19.7764 3.72364 21 5.22727 21C6.17545 21 7.01091 20.5136 7.5 19.7782C7.98909 20.5136 8.82455 21 9.77273 21C11.2764 21 12.5 19.7764 12.5 18.2727V17.3636H17.0455V18.2727C17.0455 19.7764 18.2691 21 19.7727 21C21.2764 21 22.5 19.7764 22.5 18.2727V17.0564C23.5736 16.5445 24.3182 15.4482 24.3182 14.1818V11.4309C24.3182 10.7945 24.2164 10.1655 24.0145 9.56182ZM22.2355 7.1L23.1518 9.85C23.1782 9.93 23.2027 10.0109 23.2255 10.0918H17.9536V5.54545H20.0791C21.0591 5.54545 21.9255 6.17091 22.2355 7.1ZM3.40909 5.09091C3.40909 3.33636 4.83636 1.90909 6.59091 1.90909H13.8636C15.6182 1.90909 17.0455 3.33636 17.0455 5.09091V16.4545H3.40909V5.09091ZM5.22727 20.0909C4.22455 20.0909 3.40909 19.2755 3.40909 18.2727V17.3636H7.04545V18.2727C7.04545 19.2755 6.23 20.0909 5.22727 20.0909ZM11.5909 18.2727C11.5909 19.2755 10.7755 20.0909 9.77273 20.0909C8.77 20.0909 7.95455 19.2755 7.95455 18.2727V17.3636H11.5909V18.2727ZM21.5909 18.2727C21.5909 19.2755 20.7755 20.0909 19.7727 20.0909C18.77 20.0909 17.9545 19.2755 17.9545 18.2727V17.3636H21.1364C21.2909 17.3636 21.4427 17.3527 21.5909 17.3309V18.2727ZM23.4091 14.1818C23.4091 15.4345 22.3891 16.4545 21.1364 16.4545H17.9545V11H23.39C23.4027 11.1427 23.4091 11.2864 23.4091 11.4309V14.1818Z" fill="#A5A6A6"/>
</svg>
